<mxfile host="app.diagrams.net" agent="Mozilla/5.0 (Windows NT 10.0; Win64; x64) AppleWebKit/537.36 (KHTML, like Gecko) Chrome/135.0.0.0 Safari/537.36" version="26.2.13">
  <diagram name="Page-1" id="P7umwvMnct3yrD_lnNOu">
    <mxGraphModel dx="3423" dy="1351" grid="1" gridSize="10" guides="1" tooltips="1" connect="1" arrows="1" fold="1" page="1" pageScale="1" pageWidth="827" pageHeight="1169" math="0" shadow="0">
      <root>
        <mxCell id="0" />
        <mxCell id="1" parent="0" />
        <mxCell id="SwhnOXpRfIDaBbRT-I1B-248" value="" style="rounded=0;whiteSpace=wrap;html=1;" parent="1" vertex="1">
          <mxGeometry x="-30" y="1300" width="1440" height="1024" as="geometry" />
        </mxCell>
        <mxCell id="SwhnOXpRfIDaBbRT-I1B-73" value="" style="rounded=0;whiteSpace=wrap;html=1;" parent="1" vertex="1">
          <mxGeometry x="527" y="587.5" width="300" height="492.5" as="geometry" />
        </mxCell>
        <mxCell id="SwhnOXpRfIDaBbRT-I1B-46" value="" style="rounded=0;whiteSpace=wrap;html=1;" parent="1" vertex="1">
          <mxGeometry x="180" y="585" width="300" height="495" as="geometry" />
        </mxCell>
        <mxCell id="SwhnOXpRfIDaBbRT-I1B-1" value="" style="rounded=0;whiteSpace=wrap;html=1;" parent="1" vertex="1">
          <mxGeometry x="-190" y="585" width="300" height="495" as="geometry" />
        </mxCell>
        <mxCell id="SwhnOXpRfIDaBbRT-I1B-24" value="" style="group;fillColor=#eeeeee;strokeColor=#36393d;" parent="1" vertex="1" connectable="0">
          <mxGeometry x="-190" y="635" width="300" height="120" as="geometry" />
        </mxCell>
        <mxCell id="SwhnOXpRfIDaBbRT-I1B-21" value="" style="rounded=0;whiteSpace=wrap;html=1;fillColor=#f5f5f5;fontColor=#333333;strokeColor=#666666;" parent="SwhnOXpRfIDaBbRT-I1B-24" vertex="1">
          <mxGeometry width="300" height="120" as="geometry" />
        </mxCell>
        <mxCell id="SwhnOXpRfIDaBbRT-I1B-22" value="" style="endArrow=none;html=1;rounded=0;entryX=0;entryY=1;entryDx=0;entryDy=0;exitX=1;exitY=0;exitDx=0;exitDy=0;" parent="SwhnOXpRfIDaBbRT-I1B-24" source="SwhnOXpRfIDaBbRT-I1B-21" target="SwhnOXpRfIDaBbRT-I1B-21" edge="1">
          <mxGeometry width="50" height="50" relative="1" as="geometry">
            <mxPoint x="125" y="80" as="sourcePoint" />
            <mxPoint x="175" y="30" as="targetPoint" />
          </mxGeometry>
        </mxCell>
        <mxCell id="SwhnOXpRfIDaBbRT-I1B-23" value="" style="endArrow=none;html=1;rounded=0;entryX=0;entryY=0;entryDx=0;entryDy=0;exitX=1;exitY=1;exitDx=0;exitDy=0;" parent="SwhnOXpRfIDaBbRT-I1B-24" source="SwhnOXpRfIDaBbRT-I1B-21" target="SwhnOXpRfIDaBbRT-I1B-21" edge="1">
          <mxGeometry width="50" height="50" relative="1" as="geometry">
            <mxPoint x="70" y="20" as="sourcePoint" />
            <mxPoint x="210" y="100" as="targetPoint" />
          </mxGeometry>
        </mxCell>
        <mxCell id="SwhnOXpRfIDaBbRT-I1B-25" value="&lt;h1 style=&quot;text-align: center; margin-top: 0px;&quot;&gt;&lt;span style=&quot;background-color: transparent; color: light-dark(rgb(0, 0, 0), rgb(255, 255, 255));&quot;&gt;&lt;font style=&quot;font-size: 20px;&quot;&gt;Ecoride&lt;/font&gt;&lt;/span&gt;&lt;/h1&gt;&lt;h1 style=&quot;margin-top: 0px;&quot;&gt;&lt;span style=&quot;background-color: transparent; color: light-dark(rgb(0, 0, 0), rgb(255, 255, 255)); font-weight: normal;&quot;&gt;&lt;font style=&quot;font-size: 11px;&quot;&gt;La plateforme de covoiturage responsable et écologique.&lt;/font&gt;&lt;/span&gt;&lt;/h1&gt;" style="text;html=1;whiteSpace=wrap;overflow=hidden;rounded=0;" parent="SwhnOXpRfIDaBbRT-I1B-24" vertex="1">
          <mxGeometry y="20" width="300" height="80" as="geometry" />
        </mxCell>
        <mxCell id="SwhnOXpRfIDaBbRT-I1B-26" value="Ville de départ" style="rounded=0;whiteSpace=wrap;html=1;dashed=1;align=left;" parent="1" vertex="1">
          <mxGeometry x="-190" y="770" width="300" height="30" as="geometry" />
        </mxCell>
        <mxCell id="SwhnOXpRfIDaBbRT-I1B-27" value="Ville d&#39;arrivée" style="rounded=0;whiteSpace=wrap;html=1;dashed=1;align=left;" parent="1" vertex="1">
          <mxGeometry x="-190" y="810" width="300" height="30" as="geometry" />
        </mxCell>
        <mxCell id="SwhnOXpRfIDaBbRT-I1B-28" value="Date" style="rounded=0;whiteSpace=wrap;html=1;dashed=1;align=left;" parent="1" vertex="1">
          <mxGeometry x="-190" y="849.75" width="300" height="30" as="geometry" />
        </mxCell>
        <mxCell id="SwhnOXpRfIDaBbRT-I1B-29" value="Rechercher" style="rounded=1;whiteSpace=wrap;html=1;" parent="1" vertex="1">
          <mxGeometry x="-190" y="885" width="300" height="30" as="geometry" />
        </mxCell>
        <mxCell id="SwhnOXpRfIDaBbRT-I1B-30" value="" style="sketch=0;pointerEvents=1;shadow=0;dashed=0;html=1;strokeColor=none;fillColor=#505050;labelPosition=center;verticalLabelPosition=bottom;verticalAlign=top;outlineConnect=0;align=center;shape=mxgraph.office.concepts.search;" parent="1" vertex="1">
          <mxGeometry x="80" y="890.5" width="20" height="19" as="geometry" />
        </mxCell>
        <mxCell id="SwhnOXpRfIDaBbRT-I1B-31" value="[Mentions légales]" style="rounded=0;whiteSpace=wrap;html=1;align=left;" parent="1" vertex="1">
          <mxGeometry x="-190" y="1030" width="300" height="50" as="geometry" />
        </mxCell>
        <mxCell id="SwhnOXpRfIDaBbRT-I1B-32" value="Contact" style="text;html=1;align=center;verticalAlign=middle;whiteSpace=wrap;rounded=0;" parent="1" vertex="1">
          <mxGeometry x="30" y="1040" width="60" height="30" as="geometry" />
        </mxCell>
        <mxCell id="SwhnOXpRfIDaBbRT-I1B-35" value="" style="group" parent="1" vertex="1" connectable="0">
          <mxGeometry x="527" y="585" width="300" height="50" as="geometry" />
        </mxCell>
        <mxCell id="SwhnOXpRfIDaBbRT-I1B-2" value="" style="rounded=0;whiteSpace=wrap;html=1;" parent="SwhnOXpRfIDaBbRT-I1B-35" vertex="1">
          <mxGeometry width="300" height="50" as="geometry" />
        </mxCell>
        <mxCell id="SwhnOXpRfIDaBbRT-I1B-8" value="" style="rounded=0;whiteSpace=wrap;html=1;fillColor=#eeeeee;strokeColor=#36393d;" parent="SwhnOXpRfIDaBbRT-I1B-35" vertex="1">
          <mxGeometry x="250" width="50" height="50" as="geometry" />
        </mxCell>
        <mxCell id="SwhnOXpRfIDaBbRT-I1B-9" value="" style="endArrow=none;html=1;rounded=0;" parent="SwhnOXpRfIDaBbRT-I1B-35" edge="1">
          <mxGeometry width="50" height="50" relative="1" as="geometry">
            <mxPoint x="250" y="50" as="sourcePoint" />
            <mxPoint x="300" as="targetPoint" />
          </mxGeometry>
        </mxCell>
        <mxCell id="SwhnOXpRfIDaBbRT-I1B-20" value="" style="group" parent="SwhnOXpRfIDaBbRT-I1B-35" vertex="1" connectable="0">
          <mxGeometry width="50" height="50" as="geometry" />
        </mxCell>
        <mxCell id="SwhnOXpRfIDaBbRT-I1B-12" value="" style="rounded=0;whiteSpace=wrap;html=1;" parent="SwhnOXpRfIDaBbRT-I1B-20" vertex="1">
          <mxGeometry width="50" height="50" as="geometry" />
        </mxCell>
        <mxCell id="SwhnOXpRfIDaBbRT-I1B-17" value="" style="endArrow=none;html=1;rounded=0;" parent="SwhnOXpRfIDaBbRT-I1B-20" edge="1">
          <mxGeometry width="50" height="50" relative="1" as="geometry">
            <mxPoint x="5.555555555555555" y="38.611111111111114" as="sourcePoint" />
            <mxPoint x="44.44444444444444" y="38.611111111111114" as="targetPoint" />
          </mxGeometry>
        </mxCell>
        <mxCell id="SwhnOXpRfIDaBbRT-I1B-18" value="" style="endArrow=none;html=1;rounded=0;" parent="SwhnOXpRfIDaBbRT-I1B-20" edge="1">
          <mxGeometry width="50" height="50" relative="1" as="geometry">
            <mxPoint x="5.555555555555555" y="24.722222222222225" as="sourcePoint" />
            <mxPoint x="44.44444444444444" y="24.722222222222225" as="targetPoint" />
          </mxGeometry>
        </mxCell>
        <mxCell id="SwhnOXpRfIDaBbRT-I1B-19" value="" style="endArrow=none;html=1;rounded=0;" parent="SwhnOXpRfIDaBbRT-I1B-20" edge="1">
          <mxGeometry width="50" height="50" relative="1" as="geometry">
            <mxPoint x="5.555555555555555" y="11.11111111111111" as="sourcePoint" />
            <mxPoint x="44.44444444444444" y="11.11111111111111" as="targetPoint" />
          </mxGeometry>
        </mxCell>
        <mxCell id="SwhnOXpRfIDaBbRT-I1B-34" value="" style="endArrow=none;html=1;rounded=0;entryX=0;entryY=0;entryDx=0;entryDy=0;exitX=1;exitY=1;exitDx=0;exitDy=0;" parent="SwhnOXpRfIDaBbRT-I1B-35" source="SwhnOXpRfIDaBbRT-I1B-8" target="SwhnOXpRfIDaBbRT-I1B-8" edge="1">
          <mxGeometry width="50" height="50" relative="1" as="geometry">
            <mxPoint x="190" y="130" as="sourcePoint" />
            <mxPoint x="240" y="80" as="targetPoint" />
          </mxGeometry>
        </mxCell>
        <mxCell id="SwhnOXpRfIDaBbRT-I1B-202" value="" style="group" parent="SwhnOXpRfIDaBbRT-I1B-35" vertex="1" connectable="0">
          <mxGeometry width="300" height="50" as="geometry" />
        </mxCell>
        <mxCell id="SwhnOXpRfIDaBbRT-I1B-203" value="" style="rounded=0;whiteSpace=wrap;html=1;" parent="SwhnOXpRfIDaBbRT-I1B-202" vertex="1">
          <mxGeometry width="300" height="50" as="geometry" />
        </mxCell>
        <mxCell id="SwhnOXpRfIDaBbRT-I1B-204" value="" style="rounded=0;whiteSpace=wrap;html=1;fillColor=#eeeeee;strokeColor=#36393d;" parent="SwhnOXpRfIDaBbRT-I1B-202" vertex="1">
          <mxGeometry width="50" height="50" as="geometry" />
        </mxCell>
        <mxCell id="SwhnOXpRfIDaBbRT-I1B-205" value="" style="endArrow=none;html=1;rounded=0;" parent="SwhnOXpRfIDaBbRT-I1B-202" edge="1">
          <mxGeometry width="50" height="50" relative="1" as="geometry">
            <mxPoint y="50" as="sourcePoint" />
            <mxPoint x="50" as="targetPoint" />
          </mxGeometry>
        </mxCell>
        <mxCell id="SwhnOXpRfIDaBbRT-I1B-206" value="" style="group" parent="SwhnOXpRfIDaBbRT-I1B-202" vertex="1" connectable="0">
          <mxGeometry x="250" width="50" height="50" as="geometry" />
        </mxCell>
        <mxCell id="SwhnOXpRfIDaBbRT-I1B-207" value="" style="rounded=0;whiteSpace=wrap;html=1;" parent="SwhnOXpRfIDaBbRT-I1B-206" vertex="1">
          <mxGeometry width="50" height="50" as="geometry" />
        </mxCell>
        <mxCell id="SwhnOXpRfIDaBbRT-I1B-208" value="" style="endArrow=none;html=1;rounded=0;" parent="SwhnOXpRfIDaBbRT-I1B-206" edge="1">
          <mxGeometry width="50" height="50" relative="1" as="geometry">
            <mxPoint x="5.555555555555555" y="38.611111111111114" as="sourcePoint" />
            <mxPoint x="44.44444444444444" y="38.611111111111114" as="targetPoint" />
          </mxGeometry>
        </mxCell>
        <mxCell id="SwhnOXpRfIDaBbRT-I1B-209" value="" style="endArrow=none;html=1;rounded=0;" parent="SwhnOXpRfIDaBbRT-I1B-206" edge="1">
          <mxGeometry width="50" height="50" relative="1" as="geometry">
            <mxPoint x="5.555555555555555" y="24.722222222222225" as="sourcePoint" />
            <mxPoint x="44.44444444444444" y="24.722222222222225" as="targetPoint" />
          </mxGeometry>
        </mxCell>
        <mxCell id="SwhnOXpRfIDaBbRT-I1B-210" value="" style="endArrow=none;html=1;rounded=0;" parent="SwhnOXpRfIDaBbRT-I1B-206" edge="1">
          <mxGeometry width="50" height="50" relative="1" as="geometry">
            <mxPoint x="5.555555555555555" y="11.11111111111111" as="sourcePoint" />
            <mxPoint x="44.44444444444444" y="11.11111111111111" as="targetPoint" />
          </mxGeometry>
        </mxCell>
        <mxCell id="SwhnOXpRfIDaBbRT-I1B-211" value="" style="endArrow=none;html=1;rounded=0;entryX=0;entryY=0;entryDx=0;entryDy=0;exitX=1;exitY=1;exitDx=0;exitDy=0;" parent="SwhnOXpRfIDaBbRT-I1B-202" source="SwhnOXpRfIDaBbRT-I1B-204" target="SwhnOXpRfIDaBbRT-I1B-204" edge="1">
          <mxGeometry width="50" height="50" relative="1" as="geometry">
            <mxPoint x="190" y="130" as="sourcePoint" />
            <mxPoint x="240" y="80" as="targetPoint" />
          </mxGeometry>
        </mxCell>
        <mxCell id="SwhnOXpRfIDaBbRT-I1B-36" value="" style="group" parent="1" vertex="1" connectable="0">
          <mxGeometry x="-190" y="585" width="300" height="50" as="geometry" />
        </mxCell>
        <mxCell id="SwhnOXpRfIDaBbRT-I1B-37" value="" style="rounded=0;whiteSpace=wrap;html=1;" parent="SwhnOXpRfIDaBbRT-I1B-36" vertex="1">
          <mxGeometry width="300" height="50" as="geometry" />
        </mxCell>
        <mxCell id="SwhnOXpRfIDaBbRT-I1B-38" value="" style="rounded=0;whiteSpace=wrap;html=1;fillColor=#eeeeee;strokeColor=#36393d;" parent="SwhnOXpRfIDaBbRT-I1B-36" vertex="1">
          <mxGeometry width="50" height="50" as="geometry" />
        </mxCell>
        <mxCell id="SwhnOXpRfIDaBbRT-I1B-39" value="" style="endArrow=none;html=1;rounded=0;" parent="SwhnOXpRfIDaBbRT-I1B-36" edge="1">
          <mxGeometry width="50" height="50" relative="1" as="geometry">
            <mxPoint y="50" as="sourcePoint" />
            <mxPoint x="50" as="targetPoint" />
          </mxGeometry>
        </mxCell>
        <mxCell id="SwhnOXpRfIDaBbRT-I1B-40" value="" style="group" parent="SwhnOXpRfIDaBbRT-I1B-36" vertex="1" connectable="0">
          <mxGeometry x="250" width="50" height="50" as="geometry" />
        </mxCell>
        <mxCell id="SwhnOXpRfIDaBbRT-I1B-41" value="" style="rounded=0;whiteSpace=wrap;html=1;" parent="SwhnOXpRfIDaBbRT-I1B-40" vertex="1">
          <mxGeometry width="50" height="50" as="geometry" />
        </mxCell>
        <mxCell id="SwhnOXpRfIDaBbRT-I1B-42" value="" style="endArrow=none;html=1;rounded=0;" parent="SwhnOXpRfIDaBbRT-I1B-40" edge="1">
          <mxGeometry width="50" height="50" relative="1" as="geometry">
            <mxPoint x="5.555555555555555" y="38.611111111111114" as="sourcePoint" />
            <mxPoint x="44.44444444444444" y="38.611111111111114" as="targetPoint" />
          </mxGeometry>
        </mxCell>
        <mxCell id="SwhnOXpRfIDaBbRT-I1B-43" value="" style="endArrow=none;html=1;rounded=0;" parent="SwhnOXpRfIDaBbRT-I1B-40" edge="1">
          <mxGeometry width="50" height="50" relative="1" as="geometry">
            <mxPoint x="5.555555555555555" y="24.722222222222225" as="sourcePoint" />
            <mxPoint x="44.44444444444444" y="24.722222222222225" as="targetPoint" />
          </mxGeometry>
        </mxCell>
        <mxCell id="SwhnOXpRfIDaBbRT-I1B-44" value="" style="endArrow=none;html=1;rounded=0;" parent="SwhnOXpRfIDaBbRT-I1B-40" edge="1">
          <mxGeometry width="50" height="50" relative="1" as="geometry">
            <mxPoint x="5.555555555555555" y="11.11111111111111" as="sourcePoint" />
            <mxPoint x="44.44444444444444" y="11.11111111111111" as="targetPoint" />
          </mxGeometry>
        </mxCell>
        <mxCell id="SwhnOXpRfIDaBbRT-I1B-45" value="" style="endArrow=none;html=1;rounded=0;entryX=0;entryY=0;entryDx=0;entryDy=0;exitX=1;exitY=1;exitDx=0;exitDy=0;" parent="SwhnOXpRfIDaBbRT-I1B-36" source="SwhnOXpRfIDaBbRT-I1B-38" target="SwhnOXpRfIDaBbRT-I1B-38" edge="1">
          <mxGeometry width="50" height="50" relative="1" as="geometry">
            <mxPoint x="190" y="130" as="sourcePoint" />
            <mxPoint x="240" y="80" as="targetPoint" />
          </mxGeometry>
        </mxCell>
        <mxCell id="SwhnOXpRfIDaBbRT-I1B-61" value="&lt;div style=&quot;&quot;&gt;&lt;span style=&quot;background-color: transparent; color: light-dark(rgb(0, 0, 0), rgb(255, 255, 255));&quot;&gt;&lt;br&gt;&lt;/span&gt;&lt;/div&gt;&lt;div style=&quot;&quot;&gt;&lt;span style=&quot;background-color: transparent; color: light-dark(rgb(0, 0, 0), rgb(255, 255, 255));&quot;&gt;&lt;br&gt;&lt;/span&gt;&lt;/div&gt;&lt;div style=&quot;&quot;&gt;&lt;span style=&quot;background-color: transparent; color: light-dark(rgb(0, 0, 0), rgb(255, 255, 255));&quot;&gt;Prix&lt;/span&gt;&lt;/div&gt;&lt;div&gt;&lt;div style=&quot;&quot;&gt;&lt;span style=&quot;background-color: transparent; color: light-dark(rgb(0, 0, 0), rgb(255, 255, 255));&quot;&gt;Date et h&lt;/span&gt;&lt;span style=&quot;background-color: transparent; color: light-dark(rgb(0, 0, 0), rgb(255, 255, 255));&quot;&gt;eure&lt;/span&gt;&lt;/div&gt;&lt;/div&gt;&lt;div style=&quot;&quot;&gt;Places Disponibles&lt;/div&gt;&lt;div style=&quot;&quot;&gt;Voyage écologique&lt;br&gt;&lt;/div&gt;" style="rounded=0;whiteSpace=wrap;html=1;align=left;" parent="1" vertex="1">
          <mxGeometry x="527" y="765" width="300" height="120" as="geometry" />
        </mxCell>
        <mxCell id="SwhnOXpRfIDaBbRT-I1B-62" value="Prénom" style="rounded=0;whiteSpace=wrap;html=1;dashed=1;align=left;" parent="1" vertex="1">
          <mxGeometry x="180" y="760" width="300" height="20" as="geometry" />
        </mxCell>
        <mxCell id="SwhnOXpRfIDaBbRT-I1B-63" value="Nom" style="rounded=0;whiteSpace=wrap;html=1;dashed=1;align=left;" parent="1" vertex="1">
          <mxGeometry x="180" y="785" width="300" height="20" as="geometry" />
        </mxCell>
        <mxCell id="SwhnOXpRfIDaBbRT-I1B-64" value="Email" style="rounded=0;whiteSpace=wrap;html=1;dashed=1;align=left;" parent="1" vertex="1">
          <mxGeometry x="180" y="810" width="300" height="20" as="geometry" />
        </mxCell>
        <mxCell id="SwhnOXpRfIDaBbRT-I1B-65" value="Mot de passe" style="rounded=0;whiteSpace=wrap;html=1;dashed=1;align=left;" parent="1" vertex="1">
          <mxGeometry x="180" y="835.5" width="300" height="20" as="geometry" />
        </mxCell>
        <mxCell id="SwhnOXpRfIDaBbRT-I1B-66" value="Confirmation du mot de passe" style="rounded=0;whiteSpace=wrap;html=1;dashed=1;align=left;" parent="1" vertex="1">
          <mxGeometry x="180" y="861" width="300" height="20" as="geometry" />
        </mxCell>
        <mxCell id="SwhnOXpRfIDaBbRT-I1B-67" value="Connexion" style="rounded=1;whiteSpace=wrap;html=1;" parent="1" vertex="1">
          <mxGeometry x="275" y="895" width="110" height="30" as="geometry" />
        </mxCell>
        <mxCell id="SwhnOXpRfIDaBbRT-I1B-68" value="Messages d&#39;erreurs éventuels" style="rounded=0;whiteSpace=wrap;html=1;" parent="1" vertex="1">
          <mxGeometry x="180" y="930" width="300" height="35" as="geometry" />
        </mxCell>
        <mxCell id="SwhnOXpRfIDaBbRT-I1B-69" value="[Mentions légales]" style="rounded=0;whiteSpace=wrap;html=1;align=left;" parent="1" vertex="1">
          <mxGeometry x="180" y="1025" width="300" height="55" as="geometry" />
        </mxCell>
        <mxCell id="SwhnOXpRfIDaBbRT-I1B-70" value="Contact" style="text;html=1;align=center;verticalAlign=middle;whiteSpace=wrap;rounded=0;" parent="1" vertex="1">
          <mxGeometry x="400" y="1037.5" width="60" height="30" as="geometry" />
        </mxCell>
        <mxCell id="SwhnOXpRfIDaBbRT-I1B-72" value="Déjà un compte ? [Connexion]" style="rounded=0;whiteSpace=wrap;html=1;" parent="1" vertex="1">
          <mxGeometry x="180" y="975" width="300" height="30" as="geometry" />
        </mxCell>
        <mxCell id="SwhnOXpRfIDaBbRT-I1B-74" value="Pseudo" style="rounded=0;whiteSpace=wrap;html=1;dashed=1;align=left;" parent="1" vertex="1">
          <mxGeometry x="180" y="735" width="300" height="20" as="geometry" />
        </mxCell>
        <mxCell id="SwhnOXpRfIDaBbRT-I1B-80" value="Résultats de recherche pour un trajet de X à X le xx/xx/xxx" style="rounded=0;whiteSpace=wrap;html=1;" parent="1" vertex="1">
          <mxGeometry x="527" y="650" width="300" height="70" as="geometry" />
        </mxCell>
        <mxCell id="SwhnOXpRfIDaBbRT-I1B-81" value="Filtrer" style="rounded=1;whiteSpace=wrap;html=1;" parent="1" vertex="1">
          <mxGeometry x="622" y="730" width="110" height="30" as="geometry" />
        </mxCell>
        <mxCell id="SwhnOXpRfIDaBbRT-I1B-82" value="" style="triangle;whiteSpace=wrap;html=1;direction=south;" parent="1" vertex="1">
          <mxGeometry x="700" y="740" width="20" height="15" as="geometry" />
        </mxCell>
        <mxCell id="SwhnOXpRfIDaBbRT-I1B-98" value="" style="group" parent="1" vertex="1" connectable="0">
          <mxGeometry x="590" y="770" width="30" height="30" as="geometry" />
        </mxCell>
        <mxCell id="SwhnOXpRfIDaBbRT-I1B-95" value="" style="rounded=0;whiteSpace=wrap;html=1;fillColor=#eeeeee;strokeColor=#36393d;" parent="SwhnOXpRfIDaBbRT-I1B-98" vertex="1">
          <mxGeometry width="30" height="30" as="geometry" />
        </mxCell>
        <mxCell id="SwhnOXpRfIDaBbRT-I1B-96" value="" style="endArrow=none;html=1;rounded=0;entryX=0;entryY=0;entryDx=0;entryDy=0;" parent="SwhnOXpRfIDaBbRT-I1B-98" target="SwhnOXpRfIDaBbRT-I1B-95" edge="1">
          <mxGeometry width="50" height="50" relative="1" as="geometry">
            <mxPoint x="30" y="30" as="sourcePoint" />
            <mxPoint x="-1.7999999999999998" as="targetPoint" />
          </mxGeometry>
        </mxCell>
        <mxCell id="SwhnOXpRfIDaBbRT-I1B-97" value="" style="endArrow=none;html=1;rounded=0;entryX=1;entryY=0;entryDx=0;entryDy=0;exitX=0;exitY=1;exitDx=0;exitDy=0;" parent="SwhnOXpRfIDaBbRT-I1B-98" source="SwhnOXpRfIDaBbRT-I1B-95" target="SwhnOXpRfIDaBbRT-I1B-95" edge="1">
          <mxGeometry width="50" height="50" relative="1" as="geometry">
            <mxPoint x="-1.7999999999999998" y="30" as="sourcePoint" />
            <mxPoint x="28.2" as="targetPoint" />
          </mxGeometry>
        </mxCell>
        <mxCell id="SwhnOXpRfIDaBbRT-I1B-99" value="Pseudo conducteur&lt;div&gt;Note&lt;/div&gt;" style="text;html=1;align=left;verticalAlign=middle;resizable=0;points=[];autosize=1;strokeColor=none;fillColor=none;" parent="1" vertex="1">
          <mxGeometry x="630" y="770" width="130" height="40" as="geometry" />
        </mxCell>
        <mxCell id="SwhnOXpRfIDaBbRT-I1B-100" value="Détails" style="rounded=1;whiteSpace=wrap;html=1;align=left;" parent="1" vertex="1">
          <mxGeometry x="750" y="854.5" width="70" height="20.5" as="geometry" />
        </mxCell>
        <mxCell id="SwhnOXpRfIDaBbRT-I1B-101" value="" style="triangle;whiteSpace=wrap;html=1;direction=south;" parent="1" vertex="1">
          <mxGeometry x="790" y="857.25" width="20" height="15" as="geometry" />
        </mxCell>
        <mxCell id="SwhnOXpRfIDaBbRT-I1B-104" value="Autres trajets similaires" style="rounded=0;whiteSpace=wrap;html=1;" parent="1" vertex="1">
          <mxGeometry x="527" y="895" width="300" height="35" as="geometry" />
        </mxCell>
        <mxCell id="SwhnOXpRfIDaBbRT-I1B-105" value="Aucun résultat ? [Nouvelle recherche]" style="rounded=0;whiteSpace=wrap;html=1;" parent="1" vertex="1">
          <mxGeometry x="527" y="980.5" width="300" height="35" as="geometry" />
        </mxCell>
        <mxCell id="SwhnOXpRfIDaBbRT-I1B-106" value="[Mentions légales]" style="rounded=0;whiteSpace=wrap;html=1;align=left;" parent="1" vertex="1">
          <mxGeometry x="527" y="1022.5" width="300" height="57.5" as="geometry" />
        </mxCell>
        <mxCell id="SwhnOXpRfIDaBbRT-I1B-107" value="Contact" style="text;html=1;align=center;verticalAlign=middle;whiteSpace=wrap;rounded=0;" parent="1" vertex="1">
          <mxGeometry x="750" y="1037.5" width="60" height="30" as="geometry" />
        </mxCell>
        <mxCell id="SwhnOXpRfIDaBbRT-I1B-108" value="Page de création de compte" style="rounded=0;whiteSpace=wrap;html=1;" parent="1" vertex="1">
          <mxGeometry x="180" y="650" width="300" height="70" as="geometry" />
        </mxCell>
        <mxCell id="SwhnOXpRfIDaBbRT-I1B-191" value="Autres trajets similaires" style="rounded=0;whiteSpace=wrap;html=1;" parent="1" vertex="1">
          <mxGeometry x="527" y="940" width="300" height="35" as="geometry" />
        </mxCell>
        <mxCell id="SwhnOXpRfIDaBbRT-I1B-192" value="" style="group" parent="1" vertex="1" connectable="0">
          <mxGeometry x="180" y="585" width="300" height="50" as="geometry" />
        </mxCell>
        <mxCell id="SwhnOXpRfIDaBbRT-I1B-193" value="" style="rounded=0;whiteSpace=wrap;html=1;" parent="SwhnOXpRfIDaBbRT-I1B-192" vertex="1">
          <mxGeometry width="300" height="50" as="geometry" />
        </mxCell>
        <mxCell id="SwhnOXpRfIDaBbRT-I1B-194" value="" style="rounded=0;whiteSpace=wrap;html=1;fillColor=#eeeeee;strokeColor=#36393d;" parent="SwhnOXpRfIDaBbRT-I1B-192" vertex="1">
          <mxGeometry width="50" height="50" as="geometry" />
        </mxCell>
        <mxCell id="SwhnOXpRfIDaBbRT-I1B-195" value="" style="endArrow=none;html=1;rounded=0;" parent="SwhnOXpRfIDaBbRT-I1B-192" edge="1">
          <mxGeometry width="50" height="50" relative="1" as="geometry">
            <mxPoint y="50" as="sourcePoint" />
            <mxPoint x="50" as="targetPoint" />
          </mxGeometry>
        </mxCell>
        <mxCell id="SwhnOXpRfIDaBbRT-I1B-196" value="" style="group" parent="SwhnOXpRfIDaBbRT-I1B-192" vertex="1" connectable="0">
          <mxGeometry x="250" width="50" height="50" as="geometry" />
        </mxCell>
        <mxCell id="SwhnOXpRfIDaBbRT-I1B-197" value="" style="rounded=0;whiteSpace=wrap;html=1;" parent="SwhnOXpRfIDaBbRT-I1B-196" vertex="1">
          <mxGeometry width="50" height="50" as="geometry" />
        </mxCell>
        <mxCell id="SwhnOXpRfIDaBbRT-I1B-198" value="" style="endArrow=none;html=1;rounded=0;" parent="SwhnOXpRfIDaBbRT-I1B-196" edge="1">
          <mxGeometry width="50" height="50" relative="1" as="geometry">
            <mxPoint x="5.555555555555555" y="38.611111111111114" as="sourcePoint" />
            <mxPoint x="44.44444444444444" y="38.611111111111114" as="targetPoint" />
          </mxGeometry>
        </mxCell>
        <mxCell id="SwhnOXpRfIDaBbRT-I1B-199" value="" style="endArrow=none;html=1;rounded=0;" parent="SwhnOXpRfIDaBbRT-I1B-196" edge="1">
          <mxGeometry width="50" height="50" relative="1" as="geometry">
            <mxPoint x="5.555555555555555" y="24.722222222222225" as="sourcePoint" />
            <mxPoint x="44.44444444444444" y="24.722222222222225" as="targetPoint" />
          </mxGeometry>
        </mxCell>
        <mxCell id="SwhnOXpRfIDaBbRT-I1B-200" value="" style="endArrow=none;html=1;rounded=0;" parent="SwhnOXpRfIDaBbRT-I1B-196" edge="1">
          <mxGeometry width="50" height="50" relative="1" as="geometry">
            <mxPoint x="5.555555555555555" y="11.11111111111111" as="sourcePoint" />
            <mxPoint x="44.44444444444444" y="11.11111111111111" as="targetPoint" />
          </mxGeometry>
        </mxCell>
        <mxCell id="SwhnOXpRfIDaBbRT-I1B-201" value="" style="endArrow=none;html=1;rounded=0;entryX=0;entryY=0;entryDx=0;entryDy=0;exitX=1;exitY=1;exitDx=0;exitDy=0;" parent="SwhnOXpRfIDaBbRT-I1B-192" source="SwhnOXpRfIDaBbRT-I1B-194" target="SwhnOXpRfIDaBbRT-I1B-194" edge="1">
          <mxGeometry width="50" height="50" relative="1" as="geometry">
            <mxPoint x="190" y="130" as="sourcePoint" />
            <mxPoint x="240" y="80" as="targetPoint" />
          </mxGeometry>
        </mxCell>
        <mxCell id="SwhnOXpRfIDaBbRT-I1B-230" value="" style="group" parent="1" vertex="1" connectable="0">
          <mxGeometry x="-180" y="983.25" width="280" height="29.5" as="geometry" />
        </mxCell>
        <mxCell id="SwhnOXpRfIDaBbRT-I1B-213" value="" style="rounded=0;whiteSpace=wrap;html=1;" parent="SwhnOXpRfIDaBbRT-I1B-230" vertex="1">
          <mxGeometry width="280" height="29.5" as="geometry" />
        </mxCell>
        <mxCell id="SwhnOXpRfIDaBbRT-I1B-218" value="" style="group" parent="SwhnOXpRfIDaBbRT-I1B-230" vertex="1" connectable="0">
          <mxGeometry x="24" y="4.75" width="224" height="20" as="geometry" />
        </mxCell>
        <mxCell id="SwhnOXpRfIDaBbRT-I1B-212" value="" style="whiteSpace=wrap;html=1;aspect=fixed;fillColor=#f5f5f5;fontColor=#333333;strokeColor=#666666;" parent="SwhnOXpRfIDaBbRT-I1B-218" vertex="1">
          <mxGeometry width="20" height="20" as="geometry" />
        </mxCell>
        <mxCell id="SwhnOXpRfIDaBbRT-I1B-215" value="" style="endArrow=none;html=1;rounded=0;entryX=0;entryY=0;entryDx=0;entryDy=0;exitX=1;exitY=1;exitDx=0;exitDy=0;" parent="SwhnOXpRfIDaBbRT-I1B-218" source="SwhnOXpRfIDaBbRT-I1B-212" target="SwhnOXpRfIDaBbRT-I1B-212" edge="1">
          <mxGeometry width="50" height="50" relative="1" as="geometry">
            <mxPoint x="1024" y="114.75" as="sourcePoint" />
            <mxPoint y="4.75" as="targetPoint" />
          </mxGeometry>
        </mxCell>
        <mxCell id="SwhnOXpRfIDaBbRT-I1B-216" value="" style="endArrow=none;html=1;rounded=0;entryX=0;entryY=1;entryDx=0;entryDy=0;exitX=1;exitY=0;exitDx=0;exitDy=0;" parent="SwhnOXpRfIDaBbRT-I1B-218" source="SwhnOXpRfIDaBbRT-I1B-212" target="SwhnOXpRfIDaBbRT-I1B-212" edge="1">
          <mxGeometry width="50" height="50" relative="1" as="geometry">
            <mxPoint x="96" y="29.75" as="sourcePoint" />
            <mxPoint x="32" y="9.75" as="targetPoint" />
          </mxGeometry>
        </mxCell>
        <mxCell id="SwhnOXpRfIDaBbRT-I1B-217" value="&lt;font style=&quot;font-size: 8px;&quot;&gt;Texte&amp;nbsp;&lt;/font&gt;&lt;span style=&quot;background-color: transparent; color: light-dark(rgb(0, 0, 0), rgb(255, 255, 255)); font-size: 8px;&quot;&gt;explicatif&lt;/span&gt;" style="text;html=1;align=center;verticalAlign=middle;whiteSpace=wrap;rounded=0;spacing=0;" parent="SwhnOXpRfIDaBbRT-I1B-218" vertex="1">
          <mxGeometry x="64" width="160" height="15" as="geometry" />
        </mxCell>
        <mxCell id="SwhnOXpRfIDaBbRT-I1B-256" value="" style="group" parent="1" vertex="1" connectable="0">
          <mxGeometry x="-30" y="1300" width="1440" height="90" as="geometry" />
        </mxCell>
        <mxCell id="SwhnOXpRfIDaBbRT-I1B-249" value="" style="rounded=0;whiteSpace=wrap;html=1;" parent="SwhnOXpRfIDaBbRT-I1B-256" vertex="1">
          <mxGeometry width="1440" height="80" as="geometry" />
        </mxCell>
        <mxCell id="SwhnOXpRfIDaBbRT-I1B-250" value="" style="rounded=0;whiteSpace=wrap;html=1;fillColor=#f5f5f5;fontColor=#333333;strokeColor=#666666;" parent="SwhnOXpRfIDaBbRT-I1B-256" vertex="1">
          <mxGeometry width="100" height="80" as="geometry" />
        </mxCell>
        <mxCell id="SwhnOXpRfIDaBbRT-I1B-251" value="" style="endArrow=none;html=1;rounded=0;entryX=0;entryY=0;entryDx=0;entryDy=0;exitX=1;exitY=1;exitDx=0;exitDy=0;" parent="SwhnOXpRfIDaBbRT-I1B-256" source="SwhnOXpRfIDaBbRT-I1B-250" target="SwhnOXpRfIDaBbRT-I1B-250" edge="1">
          <mxGeometry width="50" height="50" relative="1" as="geometry">
            <mxPoint x="720" y="373.84615384615387" as="sourcePoint" />
            <mxPoint x="770" y="339.2307692307692" as="targetPoint" />
          </mxGeometry>
        </mxCell>
        <mxCell id="SwhnOXpRfIDaBbRT-I1B-252" value="" style="endArrow=none;html=1;rounded=0;entryX=1;entryY=0;entryDx=0;entryDy=0;exitX=0;exitY=1;exitDx=0;exitDy=0;" parent="SwhnOXpRfIDaBbRT-I1B-256" source="SwhnOXpRfIDaBbRT-I1B-250" target="SwhnOXpRfIDaBbRT-I1B-250" edge="1">
          <mxGeometry width="50" height="50" relative="1" as="geometry">
            <mxPoint x="196.25" y="242.3076923076923" as="sourcePoint" />
            <mxPoint x="46.25" y="152.30769230769232" as="targetPoint" />
          </mxGeometry>
        </mxCell>
        <mxCell id="SwhnOXpRfIDaBbRT-I1B-253" value="&lt;font style=&quot;font-size: 24px;&quot;&gt;Connexion/Inscription&lt;/font&gt;" style="rounded=1;whiteSpace=wrap;html=1;" parent="SwhnOXpRfIDaBbRT-I1B-256" vertex="1">
          <mxGeometry x="530" y="22.692307692307693" width="280" height="34.61538461538461" as="geometry" />
        </mxCell>
        <mxCell id="SwhnOXpRfIDaBbRT-I1B-254" value="&lt;font style=&quot;font-size: 24px;&quot;&gt;Covoiturages&lt;/font&gt;" style="rounded=1;whiteSpace=wrap;html=1;" parent="SwhnOXpRfIDaBbRT-I1B-256" vertex="1">
          <mxGeometry x="840" y="20.002307692307692" width="280" height="34.61538461538461" as="geometry" />
        </mxCell>
        <mxCell id="SwhnOXpRfIDaBbRT-I1B-255" value="&lt;font style=&quot;font-size: 24px;&quot;&gt;Contact&lt;/font&gt;" style="rounded=1;whiteSpace=wrap;html=1;" parent="SwhnOXpRfIDaBbRT-I1B-256" vertex="1">
          <mxGeometry x="1150" y="20.002307692307692" width="280" height="34.61538461538461" as="geometry" />
        </mxCell>
        <mxCell id="SwhnOXpRfIDaBbRT-I1B-257" value="" style="rounded=0;whiteSpace=wrap;html=1;fillColor=#f5f5f5;fontColor=#333333;strokeColor=#666666;" parent="1" vertex="1">
          <mxGeometry x="-30" y="1380" width="1440" height="340" as="geometry" />
        </mxCell>
        <mxCell id="SwhnOXpRfIDaBbRT-I1B-258" value="" style="endArrow=none;html=1;rounded=0;entryX=1;entryY=1;entryDx=0;entryDy=0;" parent="1" target="SwhnOXpRfIDaBbRT-I1B-257" edge="1">
          <mxGeometry width="50" height="50" relative="1" as="geometry">
            <mxPoint x="-30" y="1410" as="sourcePoint" />
            <mxPoint x="740" y="1780" as="targetPoint" />
          </mxGeometry>
        </mxCell>
        <mxCell id="SwhnOXpRfIDaBbRT-I1B-259" value="" style="endArrow=none;html=1;rounded=0;entryX=1;entryY=0;entryDx=0;entryDy=0;exitX=0;exitY=1;exitDx=0;exitDy=0;" parent="1" source="SwhnOXpRfIDaBbRT-I1B-257" target="SwhnOXpRfIDaBbRT-I1B-257" edge="1">
          <mxGeometry width="50" height="50" relative="1" as="geometry">
            <mxPoint x="690" y="1830" as="sourcePoint" />
            <mxPoint x="740" y="1780" as="targetPoint" />
          </mxGeometry>
        </mxCell>
        <mxCell id="SwhnOXpRfIDaBbRT-I1B-260" value="&lt;h1 style=&quot;text-align: center; margin-top: 0px;&quot;&gt;&lt;font style=&quot;font-size: 39px;&quot;&gt;Ecoride&lt;/font&gt;&lt;/h1&gt;&lt;p&gt;Lorem ipsum dolor sit amet, consectetur adipisicing elit, sed do eiusmod tempor incididunt ut labore et dolore magna aliqua.&lt;/p&gt;" style="text;html=1;whiteSpace=wrap;overflow=hidden;rounded=0;" parent="1" vertex="1">
          <mxGeometry x="455" y="1485" width="470" height="130" as="geometry" />
        </mxCell>
        <mxCell id="SwhnOXpRfIDaBbRT-I1B-263" value="" style="group" parent="1" vertex="1" connectable="0">
          <mxGeometry x="-180" y="920" width="280" height="29.5" as="geometry" />
        </mxCell>
        <mxCell id="SwhnOXpRfIDaBbRT-I1B-264" value="" style="rounded=0;whiteSpace=wrap;html=1;" parent="SwhnOXpRfIDaBbRT-I1B-263" vertex="1">
          <mxGeometry width="280" height="29.5" as="geometry" />
        </mxCell>
        <mxCell id="SwhnOXpRfIDaBbRT-I1B-265" value="" style="group" parent="SwhnOXpRfIDaBbRT-I1B-263" vertex="1" connectable="0">
          <mxGeometry x="24" y="4.75" width="224" height="20" as="geometry" />
        </mxCell>
        <mxCell id="SwhnOXpRfIDaBbRT-I1B-266" value="" style="whiteSpace=wrap;html=1;aspect=fixed;fillColor=#f5f5f5;fontColor=#333333;strokeColor=#666666;" parent="SwhnOXpRfIDaBbRT-I1B-265" vertex="1">
          <mxGeometry width="20" height="20" as="geometry" />
        </mxCell>
        <mxCell id="SwhnOXpRfIDaBbRT-I1B-267" value="" style="endArrow=none;html=1;rounded=0;entryX=0;entryY=0;entryDx=0;entryDy=0;exitX=1;exitY=1;exitDx=0;exitDy=0;" parent="SwhnOXpRfIDaBbRT-I1B-265" source="SwhnOXpRfIDaBbRT-I1B-266" target="SwhnOXpRfIDaBbRT-I1B-266" edge="1">
          <mxGeometry width="50" height="50" relative="1" as="geometry">
            <mxPoint x="1024" y="114.75" as="sourcePoint" />
            <mxPoint y="4.75" as="targetPoint" />
          </mxGeometry>
        </mxCell>
        <mxCell id="SwhnOXpRfIDaBbRT-I1B-268" value="" style="endArrow=none;html=1;rounded=0;entryX=0;entryY=1;entryDx=0;entryDy=0;exitX=1;exitY=0;exitDx=0;exitDy=0;" parent="SwhnOXpRfIDaBbRT-I1B-265" source="SwhnOXpRfIDaBbRT-I1B-266" target="SwhnOXpRfIDaBbRT-I1B-266" edge="1">
          <mxGeometry width="50" height="50" relative="1" as="geometry">
            <mxPoint x="96" y="29.75" as="sourcePoint" />
            <mxPoint x="32" y="9.75" as="targetPoint" />
          </mxGeometry>
        </mxCell>
        <mxCell id="SwhnOXpRfIDaBbRT-I1B-269" value="&lt;font style=&quot;font-size: 8px;&quot;&gt;Texte&amp;nbsp;&lt;/font&gt;&lt;span style=&quot;background-color: transparent; color: light-dark(rgb(0, 0, 0), rgb(255, 255, 255)); font-size: 8px;&quot;&gt;explicatif&lt;/span&gt;" style="text;html=1;align=center;verticalAlign=middle;whiteSpace=wrap;rounded=0;spacing=0;" parent="SwhnOXpRfIDaBbRT-I1B-265" vertex="1">
          <mxGeometry x="64" width="160" height="15" as="geometry" />
        </mxCell>
        <mxCell id="SwhnOXpRfIDaBbRT-I1B-270" value="" style="group" parent="1" vertex="1" connectable="0">
          <mxGeometry x="-180" y="951" width="280" height="29.5" as="geometry" />
        </mxCell>
        <mxCell id="SwhnOXpRfIDaBbRT-I1B-271" value="" style="rounded=0;whiteSpace=wrap;html=1;" parent="SwhnOXpRfIDaBbRT-I1B-270" vertex="1">
          <mxGeometry width="280" height="29.5" as="geometry" />
        </mxCell>
        <mxCell id="SwhnOXpRfIDaBbRT-I1B-272" value="" style="group" parent="SwhnOXpRfIDaBbRT-I1B-270" vertex="1" connectable="0">
          <mxGeometry x="24" y="4.75" width="224" height="20" as="geometry" />
        </mxCell>
        <mxCell id="SwhnOXpRfIDaBbRT-I1B-273" value="" style="whiteSpace=wrap;html=1;aspect=fixed;fillColor=#f5f5f5;fontColor=#333333;strokeColor=#666666;" parent="SwhnOXpRfIDaBbRT-I1B-272" vertex="1">
          <mxGeometry width="20" height="20" as="geometry" />
        </mxCell>
        <mxCell id="SwhnOXpRfIDaBbRT-I1B-274" value="" style="endArrow=none;html=1;rounded=0;entryX=0;entryY=0;entryDx=0;entryDy=0;exitX=1;exitY=1;exitDx=0;exitDy=0;" parent="SwhnOXpRfIDaBbRT-I1B-272" source="SwhnOXpRfIDaBbRT-I1B-273" target="SwhnOXpRfIDaBbRT-I1B-273" edge="1">
          <mxGeometry width="50" height="50" relative="1" as="geometry">
            <mxPoint x="1024" y="114.75" as="sourcePoint" />
            <mxPoint y="4.75" as="targetPoint" />
          </mxGeometry>
        </mxCell>
        <mxCell id="SwhnOXpRfIDaBbRT-I1B-275" value="" style="endArrow=none;html=1;rounded=0;entryX=0;entryY=1;entryDx=0;entryDy=0;exitX=1;exitY=0;exitDx=0;exitDy=0;" parent="SwhnOXpRfIDaBbRT-I1B-272" source="SwhnOXpRfIDaBbRT-I1B-273" target="SwhnOXpRfIDaBbRT-I1B-273" edge="1">
          <mxGeometry width="50" height="50" relative="1" as="geometry">
            <mxPoint x="96" y="29.75" as="sourcePoint" />
            <mxPoint x="32" y="9.75" as="targetPoint" />
          </mxGeometry>
        </mxCell>
        <mxCell id="SwhnOXpRfIDaBbRT-I1B-276" value="&lt;font style=&quot;font-size: 8px;&quot;&gt;Texte&amp;nbsp;&lt;/font&gt;&lt;span style=&quot;background-color: transparent; color: light-dark(rgb(0, 0, 0), rgb(255, 255, 255)); font-size: 8px;&quot;&gt;explicatif&lt;/span&gt;" style="text;html=1;align=center;verticalAlign=middle;whiteSpace=wrap;rounded=0;spacing=0;" parent="SwhnOXpRfIDaBbRT-I1B-272" vertex="1">
          <mxGeometry x="64" width="160" height="15" as="geometry" />
        </mxCell>
        <mxCell id="SwhnOXpRfIDaBbRT-I1B-286" value="" style="group" parent="1" vertex="1" connectable="0">
          <mxGeometry x="20" y="1860" width="1360" height="180" as="geometry" />
        </mxCell>
        <mxCell id="Es2DBHv7DobXxbvyksLg-7" value="" style="rounded=0;whiteSpace=wrap;html=1;" vertex="1" parent="SwhnOXpRfIDaBbRT-I1B-286">
          <mxGeometry x="-20" y="-20" width="1380" height="200" as="geometry" />
        </mxCell>
        <mxCell id="SwhnOXpRfIDaBbRT-I1B-285" value="&lt;font style=&quot;&quot;&gt;&lt;font style=&quot;font-size: 18px;&quot;&gt;&lt;b&gt;Titre&lt;/b&gt;&lt;/font&gt;&lt;br&gt;&lt;span style=&quot;font-size: 14px; text-align: left;&quot;&gt;&lt;br&gt;&lt;/span&gt;&lt;/font&gt;&lt;div&gt;&lt;font style=&quot;&quot;&gt;&lt;span style=&quot;font-size: 14px; text-align: left;&quot;&gt;Lorem ipsum dolor sit amet, consectetur adipisicing elit, sed do eiusmod tempor incididunt ut labore et dolore magna aliqua.&lt;/span&gt;&lt;/font&gt;&lt;/div&gt;" style="rounded=0;whiteSpace=wrap;html=1;" parent="SwhnOXpRfIDaBbRT-I1B-286" vertex="1">
          <mxGeometry x="160" width="250" height="150" as="geometry" />
        </mxCell>
        <mxCell id="SwhnOXpRfIDaBbRT-I1B-282" value="" style="rounded=0;whiteSpace=wrap;html=1;fillColor=#f5f5f5;fontColor=#333333;strokeColor=#666666;" parent="SwhnOXpRfIDaBbRT-I1B-286" vertex="1">
          <mxGeometry width="160" height="150" as="geometry" />
        </mxCell>
        <mxCell id="SwhnOXpRfIDaBbRT-I1B-283" value="" style="endArrow=none;html=1;rounded=0;exitX=0;exitY=1;exitDx=0;exitDy=0;entryX=1;entryY=0;entryDx=0;entryDy=0;" parent="SwhnOXpRfIDaBbRT-I1B-286" source="SwhnOXpRfIDaBbRT-I1B-282" target="SwhnOXpRfIDaBbRT-I1B-282" edge="1">
          <mxGeometry width="50" height="50" relative="1" as="geometry">
            <mxPoint x="580" y="90" as="sourcePoint" />
            <mxPoint x="630" y="40" as="targetPoint" />
          </mxGeometry>
        </mxCell>
        <mxCell id="SwhnOXpRfIDaBbRT-I1B-284" value="" style="endArrow=none;html=1;rounded=0;exitX=0;exitY=0;exitDx=0;exitDy=0;entryX=1;entryY=1;entryDx=0;entryDy=0;" parent="SwhnOXpRfIDaBbRT-I1B-286" source="SwhnOXpRfIDaBbRT-I1B-282" target="SwhnOXpRfIDaBbRT-I1B-282" edge="1">
          <mxGeometry width="50" height="50" relative="1" as="geometry">
            <mxPoint x="10" y="160" as="sourcePoint" />
            <mxPoint x="170" y="10" as="targetPoint" />
          </mxGeometry>
        </mxCell>
        <mxCell id="SwhnOXpRfIDaBbRT-I1B-287" value="" style="group" parent="1" vertex="1" connectable="0">
          <mxGeometry x="480" y="1860" width="410" height="150" as="geometry" />
        </mxCell>
        <mxCell id="SwhnOXpRfIDaBbRT-I1B-288" value="&lt;font style=&quot;&quot;&gt;&lt;font style=&quot;font-size: 18px;&quot;&gt;&lt;b&gt;Titre&lt;/b&gt;&lt;/font&gt;&lt;br&gt;&lt;span style=&quot;font-size: 14px; text-align: left;&quot;&gt;&lt;br&gt;&lt;/span&gt;&lt;/font&gt;&lt;div&gt;&lt;font style=&quot;&quot;&gt;&lt;span style=&quot;font-size: 14px; text-align: left;&quot;&gt;Lorem ipsum dolor sit amet, consectetur adipisicing elit, sed do eiusmod tempor incididunt ut labore et dolore magna aliqua.&lt;/span&gt;&lt;/font&gt;&lt;/div&gt;" style="rounded=0;whiteSpace=wrap;html=1;" parent="SwhnOXpRfIDaBbRT-I1B-287" vertex="1">
          <mxGeometry x="160" width="250" height="150" as="geometry" />
        </mxCell>
        <mxCell id="SwhnOXpRfIDaBbRT-I1B-289" value="" style="rounded=0;whiteSpace=wrap;html=1;fillColor=#f5f5f5;fontColor=#333333;strokeColor=#666666;" parent="SwhnOXpRfIDaBbRT-I1B-287" vertex="1">
          <mxGeometry width="160" height="150" as="geometry" />
        </mxCell>
        <mxCell id="SwhnOXpRfIDaBbRT-I1B-290" value="" style="endArrow=none;html=1;rounded=0;exitX=0;exitY=1;exitDx=0;exitDy=0;entryX=1;entryY=0;entryDx=0;entryDy=0;" parent="SwhnOXpRfIDaBbRT-I1B-287" source="SwhnOXpRfIDaBbRT-I1B-289" target="SwhnOXpRfIDaBbRT-I1B-289" edge="1">
          <mxGeometry width="50" height="50" relative="1" as="geometry">
            <mxPoint x="580" y="90" as="sourcePoint" />
            <mxPoint x="630" y="40" as="targetPoint" />
          </mxGeometry>
        </mxCell>
        <mxCell id="SwhnOXpRfIDaBbRT-I1B-291" value="" style="endArrow=none;html=1;rounded=0;exitX=0;exitY=0;exitDx=0;exitDy=0;entryX=1;entryY=1;entryDx=0;entryDy=0;" parent="SwhnOXpRfIDaBbRT-I1B-287" source="SwhnOXpRfIDaBbRT-I1B-289" target="SwhnOXpRfIDaBbRT-I1B-289" edge="1">
          <mxGeometry width="50" height="50" relative="1" as="geometry">
            <mxPoint x="10" y="160" as="sourcePoint" />
            <mxPoint x="170" y="10" as="targetPoint" />
          </mxGeometry>
        </mxCell>
        <mxCell id="SwhnOXpRfIDaBbRT-I1B-292" value="" style="group" parent="1" vertex="1" connectable="0">
          <mxGeometry x="940" y="1860" width="410" height="150" as="geometry" />
        </mxCell>
        <mxCell id="SwhnOXpRfIDaBbRT-I1B-293" value="&lt;font style=&quot;&quot;&gt;&lt;font style=&quot;font-size: 18px;&quot;&gt;&lt;b&gt;Titre&lt;/b&gt;&lt;/font&gt;&lt;br&gt;&lt;span style=&quot;font-size: 14px; text-align: left;&quot;&gt;&lt;br&gt;&lt;/span&gt;&lt;/font&gt;&lt;div&gt;&lt;font style=&quot;&quot;&gt;&lt;span style=&quot;font-size: 14px; text-align: left;&quot;&gt;Lorem ipsum dolor sit amet, consectetur adipisicing elit, sed do eiusmod tempor incididunt ut labore et dolore magna aliqua.&lt;/span&gt;&lt;/font&gt;&lt;/div&gt;" style="rounded=0;whiteSpace=wrap;html=1;" parent="SwhnOXpRfIDaBbRT-I1B-292" vertex="1">
          <mxGeometry x="160" width="250" height="150" as="geometry" />
        </mxCell>
        <mxCell id="SwhnOXpRfIDaBbRT-I1B-294" value="" style="rounded=0;whiteSpace=wrap;html=1;fillColor=#f5f5f5;fontColor=#333333;strokeColor=#666666;" parent="SwhnOXpRfIDaBbRT-I1B-292" vertex="1">
          <mxGeometry width="160" height="150" as="geometry" />
        </mxCell>
        <mxCell id="SwhnOXpRfIDaBbRT-I1B-295" value="" style="endArrow=none;html=1;rounded=0;exitX=0;exitY=1;exitDx=0;exitDy=0;entryX=1;entryY=0;entryDx=0;entryDy=0;" parent="SwhnOXpRfIDaBbRT-I1B-292" source="SwhnOXpRfIDaBbRT-I1B-294" target="SwhnOXpRfIDaBbRT-I1B-294" edge="1">
          <mxGeometry width="50" height="50" relative="1" as="geometry">
            <mxPoint x="580" y="90" as="sourcePoint" />
            <mxPoint x="630" y="40" as="targetPoint" />
          </mxGeometry>
        </mxCell>
        <mxCell id="SwhnOXpRfIDaBbRT-I1B-296" value="" style="endArrow=none;html=1;rounded=0;exitX=0;exitY=0;exitDx=0;exitDy=0;entryX=1;entryY=1;entryDx=0;entryDy=0;" parent="SwhnOXpRfIDaBbRT-I1B-292" source="SwhnOXpRfIDaBbRT-I1B-294" target="SwhnOXpRfIDaBbRT-I1B-294" edge="1">
          <mxGeometry width="50" height="50" relative="1" as="geometry">
            <mxPoint x="10" y="160" as="sourcePoint" />
            <mxPoint x="170" y="10" as="targetPoint" />
          </mxGeometry>
        </mxCell>
        <mxCell id="SwhnOXpRfIDaBbRT-I1B-299" value="" style="rounded=0;whiteSpace=wrap;html=1;" parent="1" vertex="1">
          <mxGeometry x="-25" y="2360" width="1440" height="1024" as="geometry" />
        </mxCell>
        <mxCell id="SwhnOXpRfIDaBbRT-I1B-300" value="" style="group" parent="1" vertex="1" connectable="0">
          <mxGeometry x="-25" y="2360" width="1440" height="90" as="geometry" />
        </mxCell>
        <mxCell id="SwhnOXpRfIDaBbRT-I1B-301" value="" style="rounded=0;whiteSpace=wrap;html=1;" parent="SwhnOXpRfIDaBbRT-I1B-300" vertex="1">
          <mxGeometry width="1440" height="80" as="geometry" />
        </mxCell>
        <mxCell id="SwhnOXpRfIDaBbRT-I1B-302" value="" style="rounded=0;whiteSpace=wrap;html=1;fillColor=#f5f5f5;fontColor=#333333;strokeColor=#666666;" parent="SwhnOXpRfIDaBbRT-I1B-300" vertex="1">
          <mxGeometry width="100" height="80" as="geometry" />
        </mxCell>
        <mxCell id="SwhnOXpRfIDaBbRT-I1B-303" value="" style="endArrow=none;html=1;rounded=0;entryX=0;entryY=0;entryDx=0;entryDy=0;exitX=1;exitY=1;exitDx=0;exitDy=0;" parent="SwhnOXpRfIDaBbRT-I1B-300" source="SwhnOXpRfIDaBbRT-I1B-302" target="SwhnOXpRfIDaBbRT-I1B-302" edge="1">
          <mxGeometry width="50" height="50" relative="1" as="geometry">
            <mxPoint x="720" y="373.84615384615387" as="sourcePoint" />
            <mxPoint x="770" y="339.2307692307692" as="targetPoint" />
          </mxGeometry>
        </mxCell>
        <mxCell id="SwhnOXpRfIDaBbRT-I1B-304" value="" style="endArrow=none;html=1;rounded=0;entryX=1;entryY=0;entryDx=0;entryDy=0;exitX=0;exitY=1;exitDx=0;exitDy=0;" parent="SwhnOXpRfIDaBbRT-I1B-300" source="SwhnOXpRfIDaBbRT-I1B-302" target="SwhnOXpRfIDaBbRT-I1B-302" edge="1">
          <mxGeometry width="50" height="50" relative="1" as="geometry">
            <mxPoint x="196.25" y="242.3076923076923" as="sourcePoint" />
            <mxPoint x="46.25" y="152.30769230769232" as="targetPoint" />
          </mxGeometry>
        </mxCell>
        <mxCell id="SwhnOXpRfIDaBbRT-I1B-305" value="&lt;font style=&quot;font-size: 24px;&quot;&gt;Connexion/Inscription&lt;/font&gt;" style="rounded=1;whiteSpace=wrap;html=1;" parent="SwhnOXpRfIDaBbRT-I1B-300" vertex="1">
          <mxGeometry x="530" y="22.692307692307693" width="280" height="34.61538461538461" as="geometry" />
        </mxCell>
        <mxCell id="SwhnOXpRfIDaBbRT-I1B-306" value="&lt;font style=&quot;font-size: 24px;&quot;&gt;Covoiturages&lt;/font&gt;" style="rounded=1;whiteSpace=wrap;html=1;" parent="SwhnOXpRfIDaBbRT-I1B-300" vertex="1">
          <mxGeometry x="840" y="20.002307692307692" width="280" height="34.61538461538461" as="geometry" />
        </mxCell>
        <mxCell id="SwhnOXpRfIDaBbRT-I1B-307" value="&lt;font style=&quot;font-size: 24px;&quot;&gt;Contact&lt;/font&gt;" style="rounded=1;whiteSpace=wrap;html=1;" parent="SwhnOXpRfIDaBbRT-I1B-300" vertex="1">
          <mxGeometry x="1150" y="20.002307692307692" width="280" height="34.61538461538461" as="geometry" />
        </mxCell>
        <mxCell id="SwhnOXpRfIDaBbRT-I1B-314" value="" style="rounded=0;whiteSpace=wrap;html=1;" parent="1" vertex="1">
          <mxGeometry x="-10" y="2620" width="1410" height="640" as="geometry" />
        </mxCell>
        <mxCell id="SwhnOXpRfIDaBbRT-I1B-315" value="&lt;font style=&quot;font-size: 24px;&quot;&gt;Pseudo&lt;/font&gt;" style="rounded=0;whiteSpace=wrap;html=1;dashed=1;align=center;" parent="1" vertex="1">
          <mxGeometry x="285" y="2630" width="800" height="60" as="geometry" />
        </mxCell>
        <mxCell id="SwhnOXpRfIDaBbRT-I1B-317" value="&lt;font style=&quot;font-size: 24px;&quot;&gt;Nom&lt;/font&gt;" style="rounded=0;whiteSpace=wrap;html=1;dashed=1;align=center;" parent="1" vertex="1">
          <mxGeometry x="285" y="2770" width="800" height="60" as="geometry" />
        </mxCell>
        <mxCell id="SwhnOXpRfIDaBbRT-I1B-318" value="&amp;nbsp;&lt;font style=&quot;font-size: 24px;&quot;&gt;Prénom&lt;/font&gt;" style="rounded=0;whiteSpace=wrap;html=1;dashed=1;align=center;" parent="1" vertex="1">
          <mxGeometry x="285" y="2842" width="800" height="60" as="geometry" />
        </mxCell>
        <mxCell id="SwhnOXpRfIDaBbRT-I1B-319" value="&lt;font style=&quot;font-size: 24px;&quot;&gt;Mot de passe&lt;/font&gt;" style="rounded=0;whiteSpace=wrap;html=1;dashed=1;align=center;" parent="1" vertex="1">
          <mxGeometry x="285" y="2910" width="800" height="60" as="geometry" />
        </mxCell>
        <mxCell id="SwhnOXpRfIDaBbRT-I1B-320" value="&lt;font style=&quot;font-size: 24px;&quot;&gt;Confirmation du mot de passe&lt;/font&gt;" style="rounded=0;whiteSpace=wrap;html=1;dashed=1;align=center;" parent="1" vertex="1">
          <mxGeometry x="285" y="2980" width="800" height="60" as="geometry" />
        </mxCell>
        <mxCell id="SwhnOXpRfIDaBbRT-I1B-321" value="&lt;font style=&quot;font-size: 24px;&quot;&gt;Messages d&#39;erreurs éventuels&lt;/font&gt;" style="rounded=0;whiteSpace=wrap;html=1;" parent="1" vertex="1">
          <mxGeometry x="-10" y="3050" width="1410" height="60" as="geometry" />
        </mxCell>
        <mxCell id="SwhnOXpRfIDaBbRT-I1B-322" value="&lt;font style=&quot;font-size: 24px;&quot;&gt;Inscription&lt;/font&gt;" style="rounded=1;whiteSpace=wrap;html=1;" parent="1" vertex="1">
          <mxGeometry x="570" y="3120" width="263" height="60" as="geometry" />
        </mxCell>
        <mxCell id="SwhnOXpRfIDaBbRT-I1B-323" value="&lt;font style=&quot;font-size: 24px;&quot;&gt;Déjà inscrit ? [Se connecter]&lt;/font&gt;" style="rounded=0;whiteSpace=wrap;html=1;" parent="1" vertex="1">
          <mxGeometry x="-10" y="3190" width="1410" height="60" as="geometry" />
        </mxCell>
        <mxCell id="SwhnOXpRfIDaBbRT-I1B-324" value="" style="group" parent="1" vertex="1" connectable="0">
          <mxGeometry x="-30" y="2120" width="1440" height="204" as="geometry" />
        </mxCell>
        <mxCell id="SwhnOXpRfIDaBbRT-I1B-297" value="&lt;font style=&quot;font-size: 24px;&quot;&gt;&lt;span style=&quot;white-space: pre;&quot;&gt;&#x9;&lt;/span&gt;&lt;span style=&quot;white-space: pre;&quot;&gt;&#x9;&lt;/span&gt;[Mentions légales]&lt;/font&gt;" style="rounded=0;whiteSpace=wrap;html=1;align=left;" parent="SwhnOXpRfIDaBbRT-I1B-324" vertex="1">
          <mxGeometry width="1440" height="204" as="geometry" />
        </mxCell>
        <mxCell id="SwhnOXpRfIDaBbRT-I1B-298" value="&lt;font style=&quot;font-size: 24px;&quot;&gt;Contact&lt;/font&gt;" style="text;html=1;align=center;verticalAlign=middle;whiteSpace=wrap;rounded=0;" parent="SwhnOXpRfIDaBbRT-I1B-324" vertex="1">
          <mxGeometry x="1170" y="87" width="60" height="30" as="geometry" />
        </mxCell>
        <mxCell id="SwhnOXpRfIDaBbRT-I1B-325" value="" style="group" parent="1" vertex="1" connectable="0">
          <mxGeometry x="-25" y="3264" width="1440" height="120" as="geometry" />
        </mxCell>
        <mxCell id="SwhnOXpRfIDaBbRT-I1B-326" value="&lt;font style=&quot;font-size: 24px;&quot;&gt;&lt;span style=&quot;white-space: pre;&quot;&gt;&#x9;&lt;/span&gt;&lt;span style=&quot;white-space: pre;&quot;&gt;&#x9;&lt;/span&gt;[Mentions légales]&lt;/font&gt;" style="rounded=0;whiteSpace=wrap;html=1;align=left;" parent="SwhnOXpRfIDaBbRT-I1B-325" vertex="1">
          <mxGeometry width="1440" height="120" as="geometry" />
        </mxCell>
        <mxCell id="SwhnOXpRfIDaBbRT-I1B-327" value="&lt;font style=&quot;font-size: 24px;&quot;&gt;Contact&lt;/font&gt;" style="text;html=1;align=center;verticalAlign=middle;whiteSpace=wrap;rounded=0;" parent="SwhnOXpRfIDaBbRT-I1B-325" vertex="1">
          <mxGeometry x="1170" y="51.1764705882353" width="60" height="17.647058823529413" as="geometry" />
        </mxCell>
        <mxCell id="SwhnOXpRfIDaBbRT-I1B-328" value="&lt;font style=&quot;font-size: 24px;&quot;&gt;Email&lt;/font&gt;" style="rounded=0;whiteSpace=wrap;html=1;dashed=1;align=center;" parent="1" vertex="1">
          <mxGeometry x="285" y="2700" width="800" height="60" as="geometry" />
        </mxCell>
        <mxCell id="SwhnOXpRfIDaBbRT-I1B-329" value="" style="rounded=0;whiteSpace=wrap;html=1;" parent="1" vertex="1">
          <mxGeometry x="-18.5" y="3420" width="1440" height="1850" as="geometry" />
        </mxCell>
        <mxCell id="SwhnOXpRfIDaBbRT-I1B-330" value="" style="group" parent="1" vertex="1" connectable="0">
          <mxGeometry x="-18.5" y="3420" width="1440" height="90" as="geometry" />
        </mxCell>
        <mxCell id="SwhnOXpRfIDaBbRT-I1B-331" value="" style="rounded=0;whiteSpace=wrap;html=1;" parent="SwhnOXpRfIDaBbRT-I1B-330" vertex="1">
          <mxGeometry width="1440" height="80" as="geometry" />
        </mxCell>
        <mxCell id="SwhnOXpRfIDaBbRT-I1B-332" value="" style="rounded=0;whiteSpace=wrap;html=1;fillColor=#f5f5f5;fontColor=#333333;strokeColor=#666666;" parent="SwhnOXpRfIDaBbRT-I1B-330" vertex="1">
          <mxGeometry width="100" height="80" as="geometry" />
        </mxCell>
        <mxCell id="SwhnOXpRfIDaBbRT-I1B-333" value="" style="endArrow=none;html=1;rounded=0;entryX=0;entryY=0;entryDx=0;entryDy=0;exitX=1;exitY=1;exitDx=0;exitDy=0;" parent="SwhnOXpRfIDaBbRT-I1B-330" source="SwhnOXpRfIDaBbRT-I1B-332" target="SwhnOXpRfIDaBbRT-I1B-332" edge="1">
          <mxGeometry width="50" height="50" relative="1" as="geometry">
            <mxPoint x="720" y="373.84615384615387" as="sourcePoint" />
            <mxPoint x="770" y="339.2307692307692" as="targetPoint" />
          </mxGeometry>
        </mxCell>
        <mxCell id="SwhnOXpRfIDaBbRT-I1B-334" value="" style="endArrow=none;html=1;rounded=0;entryX=1;entryY=0;entryDx=0;entryDy=0;exitX=0;exitY=1;exitDx=0;exitDy=0;" parent="SwhnOXpRfIDaBbRT-I1B-330" source="SwhnOXpRfIDaBbRT-I1B-332" target="SwhnOXpRfIDaBbRT-I1B-332" edge="1">
          <mxGeometry width="50" height="50" relative="1" as="geometry">
            <mxPoint x="196.25" y="242.3076923076923" as="sourcePoint" />
            <mxPoint x="46.25" y="152.30769230769232" as="targetPoint" />
          </mxGeometry>
        </mxCell>
        <mxCell id="SwhnOXpRfIDaBbRT-I1B-335" value="&lt;font style=&quot;font-size: 24px;&quot;&gt;Connexion/Inscription&lt;/font&gt;" style="rounded=1;whiteSpace=wrap;html=1;" parent="SwhnOXpRfIDaBbRT-I1B-330" vertex="1">
          <mxGeometry x="530" y="22.692307692307693" width="280" height="34.61538461538461" as="geometry" />
        </mxCell>
        <mxCell id="SwhnOXpRfIDaBbRT-I1B-336" value="&lt;font style=&quot;font-size: 24px;&quot;&gt;Covoiturages&lt;/font&gt;" style="rounded=1;whiteSpace=wrap;html=1;" parent="SwhnOXpRfIDaBbRT-I1B-330" vertex="1">
          <mxGeometry x="840" y="20.002307692307692" width="280" height="34.61538461538461" as="geometry" />
        </mxCell>
        <mxCell id="SwhnOXpRfIDaBbRT-I1B-337" value="&lt;font style=&quot;font-size: 24px;&quot;&gt;Contact&lt;/font&gt;" style="rounded=1;whiteSpace=wrap;html=1;" parent="SwhnOXpRfIDaBbRT-I1B-330" vertex="1">
          <mxGeometry x="1150" y="20.002307692307692" width="280" height="34.61538461538461" as="geometry" />
        </mxCell>
        <mxCell id="SwhnOXpRfIDaBbRT-I1B-339" value="" style="group" parent="1" vertex="1" connectable="0">
          <mxGeometry x="-25" y="2440" width="1445" height="170" as="geometry" />
        </mxCell>
        <mxCell id="SwhnOXpRfIDaBbRT-I1B-308" value="" style="rounded=0;whiteSpace=wrap;html=1;fillColor=#f5f5f5;fontColor=#333333;strokeColor=#666666;" parent="SwhnOXpRfIDaBbRT-I1B-339" vertex="1">
          <mxGeometry width="1440" height="170" as="geometry" />
        </mxCell>
        <mxCell id="SwhnOXpRfIDaBbRT-I1B-309" value="" style="endArrow=none;html=1;rounded=0;entryX=1;entryY=1;entryDx=0;entryDy=0;" parent="SwhnOXpRfIDaBbRT-I1B-339" target="SwhnOXpRfIDaBbRT-I1B-308" edge="1">
          <mxGeometry width="50" height="50" relative="1" as="geometry">
            <mxPoint as="sourcePoint" />
            <mxPoint x="1440" y="310" as="targetPoint" />
          </mxGeometry>
        </mxCell>
        <mxCell id="SwhnOXpRfIDaBbRT-I1B-310" value="" style="endArrow=none;html=1;rounded=0;entryX=1;entryY=0;entryDx=0;entryDy=0;exitX=0;exitY=1;exitDx=0;exitDy=0;" parent="SwhnOXpRfIDaBbRT-I1B-339" source="SwhnOXpRfIDaBbRT-I1B-308" edge="1">
          <mxGeometry width="50" height="50" relative="1" as="geometry">
            <mxPoint x="5" y="340" as="sourcePoint" />
            <mxPoint x="1445" as="targetPoint" />
          </mxGeometry>
        </mxCell>
        <mxCell id="SwhnOXpRfIDaBbRT-I1B-312" value="" style="endArrow=none;html=1;rounded=0;exitX=0;exitY=1;exitDx=0;exitDy=0;" parent="SwhnOXpRfIDaBbRT-I1B-339" source="SwhnOXpRfIDaBbRT-I1B-308" target="SwhnOXpRfIDaBbRT-I1B-299" edge="1">
          <mxGeometry width="50" height="50" relative="1" as="geometry">
            <mxPoint y="170" as="sourcePoint" />
            <mxPoint x="1445" as="targetPoint" />
          </mxGeometry>
        </mxCell>
        <mxCell id="SwhnOXpRfIDaBbRT-I1B-311" value="&lt;font style=&quot;font-size: 24px;&quot;&gt;S&#39;inscrire sur Ecoride&lt;/font&gt;" style="text;html=1;align=center;verticalAlign=middle;whiteSpace=wrap;rounded=0;" parent="SwhnOXpRfIDaBbRT-I1B-339" vertex="1">
          <mxGeometry x="250" y="30" width="930" height="120" as="geometry" />
        </mxCell>
        <mxCell id="SwhnOXpRfIDaBbRT-I1B-340" value="" style="group" parent="1" vertex="1" connectable="0">
          <mxGeometry x="-20" y="3500" width="1445" height="200" as="geometry" />
        </mxCell>
        <mxCell id="SwhnOXpRfIDaBbRT-I1B-341" value="" style="rounded=0;whiteSpace=wrap;html=1;fillColor=#f5f5f5;fontColor=#333333;strokeColor=#666666;" parent="SwhnOXpRfIDaBbRT-I1B-340" vertex="1">
          <mxGeometry width="1440" height="120" as="geometry" />
        </mxCell>
        <mxCell id="SwhnOXpRfIDaBbRT-I1B-342" value="" style="endArrow=none;html=1;rounded=0;entryX=1;entryY=1;entryDx=0;entryDy=0;" parent="SwhnOXpRfIDaBbRT-I1B-340" target="SwhnOXpRfIDaBbRT-I1B-341" edge="1">
          <mxGeometry width="50" height="50" relative="1" as="geometry">
            <mxPoint as="sourcePoint" />
            <mxPoint x="1440" y="310" as="targetPoint" />
          </mxGeometry>
        </mxCell>
        <mxCell id="SwhnOXpRfIDaBbRT-I1B-343" value="" style="endArrow=none;html=1;rounded=0;entryX=1;entryY=0;entryDx=0;entryDy=0;exitX=0;exitY=1;exitDx=0;exitDy=0;" parent="SwhnOXpRfIDaBbRT-I1B-340" source="SwhnOXpRfIDaBbRT-I1B-341" edge="1">
          <mxGeometry width="50" height="50" relative="1" as="geometry">
            <mxPoint x="5" y="340" as="sourcePoint" />
            <mxPoint x="1445" as="targetPoint" />
          </mxGeometry>
        </mxCell>
        <mxCell id="SwhnOXpRfIDaBbRT-I1B-344" value="" style="endArrow=none;html=1;rounded=0;exitX=0;exitY=1;exitDx=0;exitDy=0;" parent="SwhnOXpRfIDaBbRT-I1B-340" source="SwhnOXpRfIDaBbRT-I1B-341" edge="1">
          <mxGeometry width="50" height="50" relative="1" as="geometry">
            <mxPoint y="170" as="sourcePoint" />
            <mxPoint x="1445" as="targetPoint" />
          </mxGeometry>
        </mxCell>
        <mxCell id="SwhnOXpRfIDaBbRT-I1B-345" value="&lt;font style=&quot;font-size: 24px;&quot;&gt;Résultats de votre recherche&lt;/font&gt;" style="text;html=1;align=center;verticalAlign=middle;whiteSpace=wrap;rounded=0;" parent="SwhnOXpRfIDaBbRT-I1B-340" vertex="1">
          <mxGeometry x="255" width="930" height="120" as="geometry" />
        </mxCell>
        <mxCell id="SwhnOXpRfIDaBbRT-I1B-346" value="" style="group" parent="1" vertex="1" connectable="0">
          <mxGeometry x="-10" y="1738" width="1410" height="70" as="geometry" />
        </mxCell>
        <mxCell id="Es2DBHv7DobXxbvyksLg-6" value="" style="rounded=0;whiteSpace=wrap;html=1;" vertex="1" parent="SwhnOXpRfIDaBbRT-I1B-346">
          <mxGeometry x="-10" y="-10.5" width="1420" height="80.5" as="geometry" />
        </mxCell>
        <mxCell id="SwhnOXpRfIDaBbRT-I1B-277" value="&lt;font style=&quot;font-size: 24px;&quot;&gt;&amp;nbsp; Ville de départ&lt;/font&gt;" style="rounded=0;whiteSpace=wrap;html=1;dashed=1;align=left;" parent="SwhnOXpRfIDaBbRT-I1B-346" vertex="1">
          <mxGeometry y="2" width="330" height="56" as="geometry" />
        </mxCell>
        <mxCell id="SwhnOXpRfIDaBbRT-I1B-278" value="&lt;font style=&quot;font-size: 24px;&quot;&gt;&amp;nbsp; Ville d&#39;arrivée&lt;/font&gt;" style="rounded=0;whiteSpace=wrap;html=1;dashed=1;align=left;" parent="SwhnOXpRfIDaBbRT-I1B-346" vertex="1">
          <mxGeometry x="340" y="2" width="330" height="56" as="geometry" />
        </mxCell>
        <mxCell id="SwhnOXpRfIDaBbRT-I1B-279" value="&lt;span style=&quot;font-size: 24px;&quot;&gt;&amp;nbsp; Date&lt;/span&gt;" style="rounded=0;whiteSpace=wrap;html=1;dashed=1;align=left;" parent="SwhnOXpRfIDaBbRT-I1B-346" vertex="1">
          <mxGeometry x="680" y="2" width="330" height="56" as="geometry" />
        </mxCell>
        <mxCell id="SwhnOXpRfIDaBbRT-I1B-280" value="&lt;font style=&quot;font-size: 24px;&quot;&gt;&amp;nbsp; &amp;nbsp;Rechercher&lt;/font&gt;" style="rounded=1;whiteSpace=wrap;html=1;align=left;" parent="SwhnOXpRfIDaBbRT-I1B-346" vertex="1">
          <mxGeometry x="1020" width="380" height="60" as="geometry" />
        </mxCell>
        <mxCell id="SwhnOXpRfIDaBbRT-I1B-281" value="" style="sketch=0;pointerEvents=1;shadow=0;dashed=0;html=1;strokeColor=none;fillColor=#505050;labelPosition=center;verticalLabelPosition=bottom;verticalAlign=top;outlineConnect=0;align=center;shape=mxgraph.office.concepts.search;" parent="SwhnOXpRfIDaBbRT-I1B-346" vertex="1">
          <mxGeometry x="1340" y="10.5" width="40" height="39" as="geometry" />
        </mxCell>
        <mxCell id="SwhnOXpRfIDaBbRT-I1B-348" value="&lt;font style=&quot;font-size: 24px;&quot;&gt;&amp;nbsp; Ville de départ&lt;/font&gt;" style="rounded=0;whiteSpace=wrap;html=1;dashed=1;align=left;" parent="1" vertex="1">
          <mxGeometry x="10" y="3642" width="330" height="56" as="geometry" />
        </mxCell>
        <mxCell id="SwhnOXpRfIDaBbRT-I1B-349" value="&lt;font style=&quot;font-size: 24px;&quot;&gt;&amp;nbsp; Ville d&#39;arrivée&lt;/font&gt;" style="rounded=0;whiteSpace=wrap;html=1;dashed=1;align=left;" parent="1" vertex="1">
          <mxGeometry x="350" y="3642" width="330" height="56" as="geometry" />
        </mxCell>
        <mxCell id="SwhnOXpRfIDaBbRT-I1B-350" value="&lt;span style=&quot;font-size: 24px;&quot;&gt;&amp;nbsp; Date&lt;/span&gt;" style="rounded=0;whiteSpace=wrap;html=1;dashed=1;align=left;" parent="1" vertex="1">
          <mxGeometry x="690" y="3642" width="330" height="56" as="geometry" />
        </mxCell>
        <mxCell id="SwhnOXpRfIDaBbRT-I1B-353" value="" style="group" parent="1" vertex="1" connectable="0">
          <mxGeometry x="505" y="3910" width="380" height="60" as="geometry" />
        </mxCell>
        <mxCell id="SwhnOXpRfIDaBbRT-I1B-351" value="&lt;font style=&quot;font-size: 24px;&quot;&gt;&amp;nbsp; &amp;nbsp;Rechercher&lt;/font&gt;" style="rounded=1;whiteSpace=wrap;html=1;align=left;" parent="SwhnOXpRfIDaBbRT-I1B-353" vertex="1">
          <mxGeometry width="380" height="60" as="geometry" />
        </mxCell>
        <mxCell id="SwhnOXpRfIDaBbRT-I1B-352" value="" style="sketch=0;pointerEvents=1;shadow=0;dashed=0;html=1;strokeColor=none;fillColor=#505050;labelPosition=center;verticalLabelPosition=bottom;verticalAlign=top;outlineConnect=0;align=center;shape=mxgraph.office.concepts.search;" parent="SwhnOXpRfIDaBbRT-I1B-353" vertex="1">
          <mxGeometry x="315" y="10.5" width="40" height="39" as="geometry" />
        </mxCell>
        <mxCell id="SwhnOXpRfIDaBbRT-I1B-354" value="" style="group" parent="1" vertex="1" connectable="0">
          <mxGeometry x="1030" y="3640" width="380" height="60" as="geometry" />
        </mxCell>
        <mxCell id="SwhnOXpRfIDaBbRT-I1B-355" value="&lt;font style=&quot;font-size: 24px;&quot;&gt;&amp;nbsp;Filtrer&lt;/font&gt;" style="rounded=1;whiteSpace=wrap;html=1;align=left;" parent="SwhnOXpRfIDaBbRT-I1B-354" vertex="1">
          <mxGeometry width="380" height="60" as="geometry" />
        </mxCell>
        <mxCell id="SwhnOXpRfIDaBbRT-I1B-357" value="" style="triangle;whiteSpace=wrap;html=1;direction=south;" parent="SwhnOXpRfIDaBbRT-I1B-354" vertex="1">
          <mxGeometry x="310" y="11.25" width="40" height="37.5" as="geometry" />
        </mxCell>
        <mxCell id="SwhnOXpRfIDaBbRT-I1B-367" value="" style="group" parent="1" vertex="1" connectable="0">
          <mxGeometry x="15" y="3740" width="1405" height="160" as="geometry" />
        </mxCell>
        <mxCell id="SwhnOXpRfIDaBbRT-I1B-360" value="" style="rounded=0;whiteSpace=wrap;html=1;" parent="SwhnOXpRfIDaBbRT-I1B-367" vertex="1">
          <mxGeometry width="1390" height="160" as="geometry" />
        </mxCell>
        <mxCell id="SwhnOXpRfIDaBbRT-I1B-361" value="" style="whiteSpace=wrap;html=1;aspect=fixed;" parent="SwhnOXpRfIDaBbRT-I1B-367" vertex="1">
          <mxGeometry x="25" y="20" width="20" height="20" as="geometry" />
        </mxCell>
        <mxCell id="SwhnOXpRfIDaBbRT-I1B-362" value="&lt;font style=&quot;font-size: 16px;&quot;&gt;Voyage écologique ou non&lt;/font&gt;" style="text;html=1;align=center;verticalAlign=middle;whiteSpace=wrap;rounded=0;" parent="SwhnOXpRfIDaBbRT-I1B-367" vertex="1">
          <mxGeometry x="45" y="15" width="220" height="30" as="geometry" />
        </mxCell>
        <mxCell id="SwhnOXpRfIDaBbRT-I1B-363" value="&lt;font style=&quot;font-size: 16px;&quot;&gt;&amp;nbsp; Prix maximum&lt;/font&gt;" style="rounded=0;whiteSpace=wrap;html=1;dashed=1;align=left;" parent="SwhnOXpRfIDaBbRT-I1B-367" vertex="1">
          <mxGeometry x="25" y="80" width="410" height="30" as="geometry" />
        </mxCell>
        <mxCell id="SwhnOXpRfIDaBbRT-I1B-364" value="&lt;font style=&quot;font-size: 16px;&quot;&gt;&amp;nbsp; Durée maximale&lt;/font&gt;" style="rounded=0;whiteSpace=wrap;html=1;dashed=1;align=left;" parent="SwhnOXpRfIDaBbRT-I1B-367" vertex="1">
          <mxGeometry x="860" y="15" width="410" height="30" as="geometry" />
        </mxCell>
        <mxCell id="SwhnOXpRfIDaBbRT-I1B-365" value="&lt;font style=&quot;font-size: 16px;&quot;&gt;&amp;nbsp; Note minimale du conducteur&lt;/font&gt;" style="rounded=0;whiteSpace=wrap;html=1;dashed=1;align=left;" parent="SwhnOXpRfIDaBbRT-I1B-367" vertex="1">
          <mxGeometry x="860" y="80" width="410" height="30" as="geometry" />
        </mxCell>
        <mxCell id="SwhnOXpRfIDaBbRT-I1B-368" value="" style="edgeStyle=orthogonalEdgeStyle;rounded=0;orthogonalLoop=1;jettySize=auto;html=1;entryX=0.75;entryY=0;entryDx=0;entryDy=0;" parent="1" source="SwhnOXpRfIDaBbRT-I1B-355" target="SwhnOXpRfIDaBbRT-I1B-360" edge="1">
          <mxGeometry relative="1" as="geometry" />
        </mxCell>
        <mxCell id="Es2DBHv7DobXxbvyksLg-3" value="" style="whiteSpace=wrap;html=1;aspect=fixed;fillColor=#f5f5f5;fontColor=#333333;strokeColor=#666666;" vertex="1" parent="1">
          <mxGeometry x="48" y="4060" width="52" height="52" as="geometry" />
        </mxCell>
        <mxCell id="Es2DBHv7DobXxbvyksLg-4" value="" style="endArrow=none;html=1;rounded=0;exitX=0;exitY=0;exitDx=0;exitDy=0;entryX=1;entryY=1;entryDx=0;entryDy=0;" edge="1" parent="1" source="Es2DBHv7DobXxbvyksLg-3" target="Es2DBHv7DobXxbvyksLg-3">
          <mxGeometry width="50" height="50" relative="1" as="geometry">
            <mxPoint x="600" y="4220" as="sourcePoint" />
            <mxPoint x="650" y="4170" as="targetPoint" />
          </mxGeometry>
        </mxCell>
        <mxCell id="Es2DBHv7DobXxbvyksLg-5" value="" style="endArrow=none;html=1;rounded=0;exitX=1;exitY=0;exitDx=0;exitDy=0;entryX=0;entryY=1;entryDx=0;entryDy=0;" edge="1" parent="1" source="Es2DBHv7DobXxbvyksLg-3" target="Es2DBHv7DobXxbvyksLg-3">
          <mxGeometry width="50" height="50" relative="1" as="geometry">
            <mxPoint x="600" y="4220" as="sourcePoint" />
            <mxPoint x="650" y="4170" as="targetPoint" />
          </mxGeometry>
        </mxCell>
        <mxCell id="Es2DBHv7DobXxbvyksLg-15" value="" style="rounded=0;whiteSpace=wrap;html=1;" vertex="1" parent="1">
          <mxGeometry x="480" y="4460" width="900" height="170" as="geometry" />
        </mxCell>
        <mxCell id="Es2DBHv7DobXxbvyksLg-16" value="&lt;font style=&quot;font-size: 22px;&quot;&gt;Avis du conducteur&lt;/font&gt;" style="text;html=1;align=center;verticalAlign=middle;whiteSpace=wrap;rounded=0;" vertex="1" parent="1">
          <mxGeometry x="510" y="4470" width="240" height="40" as="geometry" />
        </mxCell>
        <mxCell id="Es2DBHv7DobXxbvyksLg-17" value="&lt;font style=&quot;font-size: 22px;&quot;&gt;Modèle du véhicule&lt;/font&gt;" style="text;html=1;align=center;verticalAlign=middle;whiteSpace=wrap;rounded=0;" vertex="1" parent="1">
          <mxGeometry x="810" y="4470" width="240" height="40" as="geometry" />
        </mxCell>
        <mxCell id="Es2DBHv7DobXxbvyksLg-18" value="&lt;font style=&quot;font-size: 22px;&quot;&gt;Energie utilisée&lt;/font&gt;" style="text;html=1;align=center;verticalAlign=middle;whiteSpace=wrap;rounded=0;" vertex="1" parent="1">
          <mxGeometry x="1130" y="4470" width="240" height="40" as="geometry" />
        </mxCell>
        <mxCell id="Es2DBHv7DobXxbvyksLg-19" value="&lt;font style=&quot;font-size: 22px;&quot;&gt;Préférences du conducteur&lt;/font&gt;" style="text;html=1;align=center;verticalAlign=middle;whiteSpace=wrap;rounded=0;" vertex="1" parent="1">
          <mxGeometry x="527" y="4560" width="240" height="40" as="geometry" />
        </mxCell>
        <mxCell id="Es2DBHv7DobXxbvyksLg-20" style="edgeStyle=orthogonalEdgeStyle;rounded=0;orthogonalLoop=1;jettySize=auto;html=1;" edge="1" parent="1" source="Es2DBHv7DobXxbvyksLg-13" target="Es2DBHv7DobXxbvyksLg-15">
          <mxGeometry relative="1" as="geometry">
            <Array as="points">
              <mxPoint x="1239" y="4420" />
              <mxPoint x="930" y="4420" />
            </Array>
          </mxGeometry>
        </mxCell>
        <mxCell id="Es2DBHv7DobXxbvyksLg-32" value="&lt;font style=&quot;font-size: 24px;&quot;&gt;Navigation&lt;/font&gt;" style="rounded=1;whiteSpace=wrap;html=1;" vertex="1" parent="1">
          <mxGeometry x="545" y="5050" width="315" height="60" as="geometry" />
        </mxCell>
        <mxCell id="Es2DBHv7DobXxbvyksLg-33" value="" style="group" vertex="1" connectable="0" parent="1">
          <mxGeometry x="-20" y="5150" width="1440" height="120" as="geometry" />
        </mxCell>
        <mxCell id="Es2DBHv7DobXxbvyksLg-34" value="&lt;font style=&quot;font-size: 24px;&quot;&gt;&lt;span style=&quot;white-space: pre;&quot;&gt;&#x9;&lt;/span&gt;&lt;span style=&quot;white-space: pre;&quot;&gt;&#x9;&lt;/span&gt;[Mentions légales]&lt;/font&gt;" style="rounded=0;whiteSpace=wrap;html=1;align=left;" vertex="1" parent="Es2DBHv7DobXxbvyksLg-33">
          <mxGeometry width="1440" height="120" as="geometry" />
        </mxCell>
        <mxCell id="Es2DBHv7DobXxbvyksLg-35" value="&lt;font style=&quot;font-size: 24px;&quot;&gt;Contact&lt;/font&gt;" style="text;html=1;align=center;verticalAlign=middle;whiteSpace=wrap;rounded=0;" vertex="1" parent="Es2DBHv7DobXxbvyksLg-33">
          <mxGeometry x="1170" y="51.1764705882353" width="60" height="17.647058823529413" as="geometry" />
        </mxCell>
        <mxCell id="Es2DBHv7DobXxbvyksLg-64" value="" style="group" vertex="1" connectable="0" parent="1">
          <mxGeometry x="-10" y="4000" width="1420" height="400" as="geometry" />
        </mxCell>
        <mxCell id="Es2DBHv7DobXxbvyksLg-1" value="" style="rounded=0;whiteSpace=wrap;html=1;" vertex="1" parent="Es2DBHv7DobXxbvyksLg-64">
          <mxGeometry width="1420" height="400" as="geometry" />
        </mxCell>
        <mxCell id="Es2DBHv7DobXxbvyksLg-2" value="&lt;font style=&quot;font-size: 24px;&quot;&gt;Pseudo conducteur&lt;/font&gt;" style="text;html=1;align=center;verticalAlign=middle;whiteSpace=wrap;rounded=0;" vertex="1" parent="Es2DBHv7DobXxbvyksLg-64">
          <mxGeometry x="118.5" y="30" width="220" height="70" as="geometry" />
        </mxCell>
        <mxCell id="Es2DBHv7DobXxbvyksLg-8" value="&lt;font style=&quot;font-size: 24px;&quot;&gt;Départ -&amp;gt; Arrivée&lt;/font&gt;" style="text;html=1;align=center;verticalAlign=middle;whiteSpace=wrap;rounded=0;" vertex="1" parent="Es2DBHv7DobXxbvyksLg-64">
          <mxGeometry x="573.5" y="30" width="220" height="70" as="geometry" />
        </mxCell>
        <mxCell id="Es2DBHv7DobXxbvyksLg-9" value="&lt;font style=&quot;font-size: 24px;&quot;&gt;Date/Heure&lt;/font&gt;" style="text;html=1;align=center;verticalAlign=middle;whiteSpace=wrap;rounded=0;" vertex="1" parent="Es2DBHv7DobXxbvyksLg-64">
          <mxGeometry x="1068.5" y="30" width="220" height="70" as="geometry" />
        </mxCell>
        <mxCell id="Es2DBHv7DobXxbvyksLg-10" value="&lt;font style=&quot;font-size: 24px;&quot;&gt;Prix&lt;/font&gt;" style="text;html=1;align=center;verticalAlign=middle;whiteSpace=wrap;rounded=0;" vertex="1" parent="Es2DBHv7DobXxbvyksLg-64">
          <mxGeometry x="63.5" y="240" width="220" height="70" as="geometry" />
        </mxCell>
        <mxCell id="Es2DBHv7DobXxbvyksLg-11" value="&lt;font style=&quot;font-size: 24px;&quot;&gt;Durée&lt;/font&gt;" style="text;html=1;align=center;verticalAlign=middle;whiteSpace=wrap;rounded=0;" vertex="1" parent="Es2DBHv7DobXxbvyksLg-64">
          <mxGeometry x="268.5" y="240" width="220" height="70" as="geometry" />
        </mxCell>
        <mxCell id="Es2DBHv7DobXxbvyksLg-12" value="" style="group" vertex="1" connectable="0" parent="Es2DBHv7DobXxbvyksLg-64">
          <mxGeometry x="1128.5" y="320" width="240" height="60" as="geometry" />
        </mxCell>
        <mxCell id="Es2DBHv7DobXxbvyksLg-13" value="&lt;font style=&quot;font-size: 24px;&quot;&gt;Détails&lt;/font&gt;" style="rounded=1;whiteSpace=wrap;html=1;align=center;" vertex="1" parent="Es2DBHv7DobXxbvyksLg-12">
          <mxGeometry width="240" height="60" as="geometry" />
        </mxCell>
        <mxCell id="Es2DBHv7DobXxbvyksLg-14" value="" style="triangle;whiteSpace=wrap;html=1;direction=south;" vertex="1" parent="Es2DBHv7DobXxbvyksLg-12">
          <mxGeometry x="195.78947368421052" y="11.25" width="25.263157894736842" height="37.5" as="geometry" />
        </mxCell>
        <mxCell id="Es2DBHv7DobXxbvyksLg-44" value="" style="group" vertex="1" connectable="0" parent="Es2DBHv7DobXxbvyksLg-64">
          <mxGeometry x="1070" y="40" width="38" height="38" as="geometry" />
        </mxCell>
        <mxCell id="Es2DBHv7DobXxbvyksLg-36" value="" style="whiteSpace=wrap;html=1;aspect=fixed;fillColor=#f5f5f5;fontColor=#333333;strokeColor=#666666;" vertex="1" parent="Es2DBHv7DobXxbvyksLg-44">
          <mxGeometry width="38" height="38" as="geometry" />
        </mxCell>
        <mxCell id="Es2DBHv7DobXxbvyksLg-37" value="" style="endArrow=none;html=1;rounded=0;entryX=1;entryY=0;entryDx=0;entryDy=0;exitX=0;exitY=1;exitDx=0;exitDy=0;" edge="1" parent="Es2DBHv7DobXxbvyksLg-44" source="Es2DBHv7DobXxbvyksLg-36" target="Es2DBHv7DobXxbvyksLg-36">
          <mxGeometry width="50" height="50" relative="1" as="geometry">
            <mxPoint x="248" y="140" as="sourcePoint" />
            <mxPoint x="298" y="90" as="targetPoint" />
          </mxGeometry>
        </mxCell>
        <mxCell id="Es2DBHv7DobXxbvyksLg-38" value="" style="endArrow=none;html=1;rounded=0;exitX=0;exitY=0;exitDx=0;exitDy=0;entryX=1;entryY=1;entryDx=0;entryDy=0;" edge="1" parent="Es2DBHv7DobXxbvyksLg-44" source="Es2DBHv7DobXxbvyksLg-36" target="Es2DBHv7DobXxbvyksLg-36">
          <mxGeometry width="50" height="50" relative="1" as="geometry">
            <mxPoint x="538" y="10" as="sourcePoint" />
            <mxPoint x="588" y="-40" as="targetPoint" />
          </mxGeometry>
        </mxCell>
        <mxCell id="Es2DBHv7DobXxbvyksLg-46" value="" style="group" vertex="1" connectable="0" parent="Es2DBHv7DobXxbvyksLg-64">
          <mxGeometry x="82" y="40" width="38" height="38" as="geometry" />
        </mxCell>
        <mxCell id="Es2DBHv7DobXxbvyksLg-47" value="" style="whiteSpace=wrap;html=1;aspect=fixed;fillColor=#f5f5f5;fontColor=#333333;strokeColor=#666666;" vertex="1" parent="Es2DBHv7DobXxbvyksLg-46">
          <mxGeometry width="38" height="38" as="geometry" />
        </mxCell>
        <mxCell id="Es2DBHv7DobXxbvyksLg-48" value="" style="endArrow=none;html=1;rounded=0;entryX=1;entryY=0;entryDx=0;entryDy=0;exitX=0;exitY=1;exitDx=0;exitDy=0;" edge="1" parent="Es2DBHv7DobXxbvyksLg-46" source="Es2DBHv7DobXxbvyksLg-47" target="Es2DBHv7DobXxbvyksLg-47">
          <mxGeometry width="50" height="50" relative="1" as="geometry">
            <mxPoint x="248" y="140" as="sourcePoint" />
            <mxPoint x="298" y="90" as="targetPoint" />
          </mxGeometry>
        </mxCell>
        <mxCell id="Es2DBHv7DobXxbvyksLg-49" value="" style="endArrow=none;html=1;rounded=0;exitX=0;exitY=0;exitDx=0;exitDy=0;entryX=1;entryY=1;entryDx=0;entryDy=0;" edge="1" parent="Es2DBHv7DobXxbvyksLg-46" source="Es2DBHv7DobXxbvyksLg-47" target="Es2DBHv7DobXxbvyksLg-47">
          <mxGeometry width="50" height="50" relative="1" as="geometry">
            <mxPoint x="538" y="10" as="sourcePoint" />
            <mxPoint x="588" y="-40" as="targetPoint" />
          </mxGeometry>
        </mxCell>
        <mxCell id="Es2DBHv7DobXxbvyksLg-50" value="" style="group" vertex="1" connectable="0" parent="Es2DBHv7DobXxbvyksLg-64">
          <mxGeometry x="550" y="40" width="38" height="38" as="geometry" />
        </mxCell>
        <mxCell id="Es2DBHv7DobXxbvyksLg-51" value="" style="whiteSpace=wrap;html=1;aspect=fixed;fillColor=#f5f5f5;fontColor=#333333;strokeColor=#666666;" vertex="1" parent="Es2DBHv7DobXxbvyksLg-50">
          <mxGeometry width="38" height="38" as="geometry" />
        </mxCell>
        <mxCell id="Es2DBHv7DobXxbvyksLg-52" value="" style="endArrow=none;html=1;rounded=0;entryX=1;entryY=0;entryDx=0;entryDy=0;exitX=0;exitY=1;exitDx=0;exitDy=0;" edge="1" parent="Es2DBHv7DobXxbvyksLg-50" source="Es2DBHv7DobXxbvyksLg-51" target="Es2DBHv7DobXxbvyksLg-51">
          <mxGeometry width="50" height="50" relative="1" as="geometry">
            <mxPoint x="248" y="140" as="sourcePoint" />
            <mxPoint x="298" y="90" as="targetPoint" />
          </mxGeometry>
        </mxCell>
        <mxCell id="Es2DBHv7DobXxbvyksLg-53" value="" style="endArrow=none;html=1;rounded=0;exitX=0;exitY=0;exitDx=0;exitDy=0;entryX=1;entryY=1;entryDx=0;entryDy=0;" edge="1" parent="Es2DBHv7DobXxbvyksLg-50" source="Es2DBHv7DobXxbvyksLg-51" target="Es2DBHv7DobXxbvyksLg-51">
          <mxGeometry width="50" height="50" relative="1" as="geometry">
            <mxPoint x="538" y="10" as="sourcePoint" />
            <mxPoint x="588" y="-40" as="targetPoint" />
          </mxGeometry>
        </mxCell>
        <mxCell id="Es2DBHv7DobXxbvyksLg-54" value="" style="group" vertex="1" connectable="0" parent="Es2DBHv7DobXxbvyksLg-64">
          <mxGeometry x="100" y="256" width="38" height="38" as="geometry" />
        </mxCell>
        <mxCell id="Es2DBHv7DobXxbvyksLg-55" value="" style="whiteSpace=wrap;html=1;aspect=fixed;fillColor=#f5f5f5;fontColor=#333333;strokeColor=#666666;" vertex="1" parent="Es2DBHv7DobXxbvyksLg-54">
          <mxGeometry width="38" height="38" as="geometry" />
        </mxCell>
        <mxCell id="Es2DBHv7DobXxbvyksLg-56" value="" style="endArrow=none;html=1;rounded=0;entryX=1;entryY=0;entryDx=0;entryDy=0;exitX=0;exitY=1;exitDx=0;exitDy=0;" edge="1" parent="Es2DBHv7DobXxbvyksLg-54" source="Es2DBHv7DobXxbvyksLg-55" target="Es2DBHv7DobXxbvyksLg-55">
          <mxGeometry width="50" height="50" relative="1" as="geometry">
            <mxPoint x="248" y="140" as="sourcePoint" />
            <mxPoint x="298" y="90" as="targetPoint" />
          </mxGeometry>
        </mxCell>
        <mxCell id="Es2DBHv7DobXxbvyksLg-57" value="" style="endArrow=none;html=1;rounded=0;exitX=0;exitY=0;exitDx=0;exitDy=0;entryX=1;entryY=1;entryDx=0;entryDy=0;" edge="1" parent="Es2DBHv7DobXxbvyksLg-54" source="Es2DBHv7DobXxbvyksLg-55" target="Es2DBHv7DobXxbvyksLg-55">
          <mxGeometry width="50" height="50" relative="1" as="geometry">
            <mxPoint x="538" y="10" as="sourcePoint" />
            <mxPoint x="588" y="-40" as="targetPoint" />
          </mxGeometry>
        </mxCell>
        <mxCell id="Es2DBHv7DobXxbvyksLg-59" value="" style="group" vertex="1" connectable="0" parent="Es2DBHv7DobXxbvyksLg-64">
          <mxGeometry x="295" y="256" width="38" height="38" as="geometry" />
        </mxCell>
        <mxCell id="Es2DBHv7DobXxbvyksLg-60" value="" style="whiteSpace=wrap;html=1;aspect=fixed;fillColor=#f5f5f5;fontColor=#333333;strokeColor=#666666;" vertex="1" parent="Es2DBHv7DobXxbvyksLg-59">
          <mxGeometry width="38" height="38" as="geometry" />
        </mxCell>
        <mxCell id="Es2DBHv7DobXxbvyksLg-61" value="" style="endArrow=none;html=1;rounded=0;entryX=1;entryY=0;entryDx=0;entryDy=0;exitX=0;exitY=1;exitDx=0;exitDy=0;" edge="1" parent="Es2DBHv7DobXxbvyksLg-59" source="Es2DBHv7DobXxbvyksLg-60" target="Es2DBHv7DobXxbvyksLg-60">
          <mxGeometry width="50" height="50" relative="1" as="geometry">
            <mxPoint x="248" y="140" as="sourcePoint" />
            <mxPoint x="298" y="90" as="targetPoint" />
          </mxGeometry>
        </mxCell>
        <mxCell id="Es2DBHv7DobXxbvyksLg-62" value="" style="endArrow=none;html=1;rounded=0;exitX=0;exitY=0;exitDx=0;exitDy=0;entryX=1;entryY=1;entryDx=0;entryDy=0;" edge="1" parent="Es2DBHv7DobXxbvyksLg-59" source="Es2DBHv7DobXxbvyksLg-60" target="Es2DBHv7DobXxbvyksLg-60">
          <mxGeometry width="50" height="50" relative="1" as="geometry">
            <mxPoint x="538" y="10" as="sourcePoint" />
            <mxPoint x="588" y="-40" as="targetPoint" />
          </mxGeometry>
        </mxCell>
        <mxCell id="Es2DBHv7DobXxbvyksLg-65" value="" style="group" vertex="1" connectable="0" parent="1">
          <mxGeometry x="-10" y="4640" width="1420" height="400" as="geometry" />
        </mxCell>
        <mxCell id="Es2DBHv7DobXxbvyksLg-66" value="" style="rounded=0;whiteSpace=wrap;html=1;" vertex="1" parent="Es2DBHv7DobXxbvyksLg-65">
          <mxGeometry width="1420" height="400" as="geometry" />
        </mxCell>
        <mxCell id="Es2DBHv7DobXxbvyksLg-67" value="&lt;font style=&quot;font-size: 24px;&quot;&gt;Pseudo conducteur&lt;/font&gt;" style="text;html=1;align=center;verticalAlign=middle;whiteSpace=wrap;rounded=0;" vertex="1" parent="Es2DBHv7DobXxbvyksLg-65">
          <mxGeometry x="118.5" y="30" width="220" height="70" as="geometry" />
        </mxCell>
        <mxCell id="Es2DBHv7DobXxbvyksLg-68" value="&lt;font style=&quot;font-size: 24px;&quot;&gt;Départ -&amp;gt; Arrivée&lt;/font&gt;" style="text;html=1;align=center;verticalAlign=middle;whiteSpace=wrap;rounded=0;" vertex="1" parent="Es2DBHv7DobXxbvyksLg-65">
          <mxGeometry x="573.5" y="30" width="220" height="70" as="geometry" />
        </mxCell>
        <mxCell id="Es2DBHv7DobXxbvyksLg-69" value="&lt;font style=&quot;font-size: 24px;&quot;&gt;Date/Heure&lt;/font&gt;" style="text;html=1;align=center;verticalAlign=middle;whiteSpace=wrap;rounded=0;" vertex="1" parent="Es2DBHv7DobXxbvyksLg-65">
          <mxGeometry x="1068.5" y="30" width="220" height="70" as="geometry" />
        </mxCell>
        <mxCell id="Es2DBHv7DobXxbvyksLg-70" value="&lt;font style=&quot;font-size: 24px;&quot;&gt;Prix&lt;/font&gt;" style="text;html=1;align=center;verticalAlign=middle;whiteSpace=wrap;rounded=0;" vertex="1" parent="Es2DBHv7DobXxbvyksLg-65">
          <mxGeometry x="63.5" y="240" width="220" height="70" as="geometry" />
        </mxCell>
        <mxCell id="Es2DBHv7DobXxbvyksLg-71" value="&lt;font style=&quot;font-size: 24px;&quot;&gt;Durée&lt;/font&gt;" style="text;html=1;align=center;verticalAlign=middle;whiteSpace=wrap;rounded=0;" vertex="1" parent="Es2DBHv7DobXxbvyksLg-65">
          <mxGeometry x="268.5" y="240" width="220" height="70" as="geometry" />
        </mxCell>
        <mxCell id="Es2DBHv7DobXxbvyksLg-72" value="" style="group" vertex="1" connectable="0" parent="Es2DBHv7DobXxbvyksLg-65">
          <mxGeometry x="1128.5" y="320" width="240" height="60" as="geometry" />
        </mxCell>
        <mxCell id="Es2DBHv7DobXxbvyksLg-73" value="&lt;font style=&quot;font-size: 24px;&quot;&gt;Détails&lt;/font&gt;" style="rounded=1;whiteSpace=wrap;html=1;align=center;" vertex="1" parent="Es2DBHv7DobXxbvyksLg-72">
          <mxGeometry width="240" height="60" as="geometry" />
        </mxCell>
        <mxCell id="Es2DBHv7DobXxbvyksLg-74" value="" style="triangle;whiteSpace=wrap;html=1;direction=south;" vertex="1" parent="Es2DBHv7DobXxbvyksLg-72">
          <mxGeometry x="195.78947368421052" y="11.25" width="25.263157894736842" height="37.5" as="geometry" />
        </mxCell>
        <mxCell id="Es2DBHv7DobXxbvyksLg-75" value="" style="group" vertex="1" connectable="0" parent="Es2DBHv7DobXxbvyksLg-65">
          <mxGeometry x="1070" y="40" width="38" height="38" as="geometry" />
        </mxCell>
        <mxCell id="Es2DBHv7DobXxbvyksLg-76" value="" style="whiteSpace=wrap;html=1;aspect=fixed;fillColor=#f5f5f5;fontColor=#333333;strokeColor=#666666;" vertex="1" parent="Es2DBHv7DobXxbvyksLg-75">
          <mxGeometry width="38" height="38" as="geometry" />
        </mxCell>
        <mxCell id="Es2DBHv7DobXxbvyksLg-77" value="" style="endArrow=none;html=1;rounded=0;entryX=1;entryY=0;entryDx=0;entryDy=0;exitX=0;exitY=1;exitDx=0;exitDy=0;" edge="1" parent="Es2DBHv7DobXxbvyksLg-75" source="Es2DBHv7DobXxbvyksLg-76" target="Es2DBHv7DobXxbvyksLg-76">
          <mxGeometry width="50" height="50" relative="1" as="geometry">
            <mxPoint x="248" y="140" as="sourcePoint" />
            <mxPoint x="298" y="90" as="targetPoint" />
          </mxGeometry>
        </mxCell>
        <mxCell id="Es2DBHv7DobXxbvyksLg-78" value="" style="endArrow=none;html=1;rounded=0;exitX=0;exitY=0;exitDx=0;exitDy=0;entryX=1;entryY=1;entryDx=0;entryDy=0;" edge="1" parent="Es2DBHv7DobXxbvyksLg-75" source="Es2DBHv7DobXxbvyksLg-76" target="Es2DBHv7DobXxbvyksLg-76">
          <mxGeometry width="50" height="50" relative="1" as="geometry">
            <mxPoint x="538" y="10" as="sourcePoint" />
            <mxPoint x="588" y="-40" as="targetPoint" />
          </mxGeometry>
        </mxCell>
        <mxCell id="Es2DBHv7DobXxbvyksLg-79" value="" style="group" vertex="1" connectable="0" parent="Es2DBHv7DobXxbvyksLg-65">
          <mxGeometry x="82" y="40" width="38" height="38" as="geometry" />
        </mxCell>
        <mxCell id="Es2DBHv7DobXxbvyksLg-80" value="" style="whiteSpace=wrap;html=1;aspect=fixed;fillColor=#f5f5f5;fontColor=#333333;strokeColor=#666666;" vertex="1" parent="Es2DBHv7DobXxbvyksLg-79">
          <mxGeometry width="38" height="38" as="geometry" />
        </mxCell>
        <mxCell id="Es2DBHv7DobXxbvyksLg-81" value="" style="endArrow=none;html=1;rounded=0;entryX=1;entryY=0;entryDx=0;entryDy=0;exitX=0;exitY=1;exitDx=0;exitDy=0;" edge="1" parent="Es2DBHv7DobXxbvyksLg-79" source="Es2DBHv7DobXxbvyksLg-80" target="Es2DBHv7DobXxbvyksLg-80">
          <mxGeometry width="50" height="50" relative="1" as="geometry">
            <mxPoint x="248" y="140" as="sourcePoint" />
            <mxPoint x="298" y="90" as="targetPoint" />
          </mxGeometry>
        </mxCell>
        <mxCell id="Es2DBHv7DobXxbvyksLg-82" value="" style="endArrow=none;html=1;rounded=0;exitX=0;exitY=0;exitDx=0;exitDy=0;entryX=1;entryY=1;entryDx=0;entryDy=0;" edge="1" parent="Es2DBHv7DobXxbvyksLg-79" source="Es2DBHv7DobXxbvyksLg-80" target="Es2DBHv7DobXxbvyksLg-80">
          <mxGeometry width="50" height="50" relative="1" as="geometry">
            <mxPoint x="538" y="10" as="sourcePoint" />
            <mxPoint x="588" y="-40" as="targetPoint" />
          </mxGeometry>
        </mxCell>
        <mxCell id="Es2DBHv7DobXxbvyksLg-83" value="" style="group" vertex="1" connectable="0" parent="Es2DBHv7DobXxbvyksLg-65">
          <mxGeometry x="550" y="40" width="38" height="38" as="geometry" />
        </mxCell>
        <mxCell id="Es2DBHv7DobXxbvyksLg-84" value="" style="whiteSpace=wrap;html=1;aspect=fixed;fillColor=#f5f5f5;fontColor=#333333;strokeColor=#666666;" vertex="1" parent="Es2DBHv7DobXxbvyksLg-83">
          <mxGeometry width="38" height="38" as="geometry" />
        </mxCell>
        <mxCell id="Es2DBHv7DobXxbvyksLg-85" value="" style="endArrow=none;html=1;rounded=0;entryX=1;entryY=0;entryDx=0;entryDy=0;exitX=0;exitY=1;exitDx=0;exitDy=0;" edge="1" parent="Es2DBHv7DobXxbvyksLg-83" source="Es2DBHv7DobXxbvyksLg-84" target="Es2DBHv7DobXxbvyksLg-84">
          <mxGeometry width="50" height="50" relative="1" as="geometry">
            <mxPoint x="248" y="140" as="sourcePoint" />
            <mxPoint x="298" y="90" as="targetPoint" />
          </mxGeometry>
        </mxCell>
        <mxCell id="Es2DBHv7DobXxbvyksLg-86" value="" style="endArrow=none;html=1;rounded=0;exitX=0;exitY=0;exitDx=0;exitDy=0;entryX=1;entryY=1;entryDx=0;entryDy=0;" edge="1" parent="Es2DBHv7DobXxbvyksLg-83" source="Es2DBHv7DobXxbvyksLg-84" target="Es2DBHv7DobXxbvyksLg-84">
          <mxGeometry width="50" height="50" relative="1" as="geometry">
            <mxPoint x="538" y="10" as="sourcePoint" />
            <mxPoint x="588" y="-40" as="targetPoint" />
          </mxGeometry>
        </mxCell>
        <mxCell id="Es2DBHv7DobXxbvyksLg-87" value="" style="group" vertex="1" connectable="0" parent="Es2DBHv7DobXxbvyksLg-65">
          <mxGeometry x="100" y="256" width="38" height="38" as="geometry" />
        </mxCell>
        <mxCell id="Es2DBHv7DobXxbvyksLg-88" value="" style="whiteSpace=wrap;html=1;aspect=fixed;fillColor=#f5f5f5;fontColor=#333333;strokeColor=#666666;" vertex="1" parent="Es2DBHv7DobXxbvyksLg-87">
          <mxGeometry width="38" height="38" as="geometry" />
        </mxCell>
        <mxCell id="Es2DBHv7DobXxbvyksLg-89" value="" style="endArrow=none;html=1;rounded=0;entryX=1;entryY=0;entryDx=0;entryDy=0;exitX=0;exitY=1;exitDx=0;exitDy=0;" edge="1" parent="Es2DBHv7DobXxbvyksLg-87" source="Es2DBHv7DobXxbvyksLg-88" target="Es2DBHv7DobXxbvyksLg-88">
          <mxGeometry width="50" height="50" relative="1" as="geometry">
            <mxPoint x="248" y="140" as="sourcePoint" />
            <mxPoint x="298" y="90" as="targetPoint" />
          </mxGeometry>
        </mxCell>
        <mxCell id="Es2DBHv7DobXxbvyksLg-90" value="" style="endArrow=none;html=1;rounded=0;exitX=0;exitY=0;exitDx=0;exitDy=0;entryX=1;entryY=1;entryDx=0;entryDy=0;" edge="1" parent="Es2DBHv7DobXxbvyksLg-87" source="Es2DBHv7DobXxbvyksLg-88" target="Es2DBHv7DobXxbvyksLg-88">
          <mxGeometry width="50" height="50" relative="1" as="geometry">
            <mxPoint x="538" y="10" as="sourcePoint" />
            <mxPoint x="588" y="-40" as="targetPoint" />
          </mxGeometry>
        </mxCell>
        <mxCell id="Es2DBHv7DobXxbvyksLg-91" value="" style="group" vertex="1" connectable="0" parent="Es2DBHv7DobXxbvyksLg-65">
          <mxGeometry x="295" y="256" width="38" height="38" as="geometry" />
        </mxCell>
        <mxCell id="Es2DBHv7DobXxbvyksLg-92" value="" style="whiteSpace=wrap;html=1;aspect=fixed;fillColor=#f5f5f5;fontColor=#333333;strokeColor=#666666;" vertex="1" parent="Es2DBHv7DobXxbvyksLg-91">
          <mxGeometry width="38" height="38" as="geometry" />
        </mxCell>
        <mxCell id="Es2DBHv7DobXxbvyksLg-93" value="" style="endArrow=none;html=1;rounded=0;entryX=1;entryY=0;entryDx=0;entryDy=0;exitX=0;exitY=1;exitDx=0;exitDy=0;" edge="1" parent="Es2DBHv7DobXxbvyksLg-91" source="Es2DBHv7DobXxbvyksLg-92" target="Es2DBHv7DobXxbvyksLg-92">
          <mxGeometry width="50" height="50" relative="1" as="geometry">
            <mxPoint x="248" y="140" as="sourcePoint" />
            <mxPoint x="298" y="90" as="targetPoint" />
          </mxGeometry>
        </mxCell>
        <mxCell id="Es2DBHv7DobXxbvyksLg-94" value="" style="endArrow=none;html=1;rounded=0;exitX=0;exitY=0;exitDx=0;exitDy=0;entryX=1;entryY=1;entryDx=0;entryDy=0;" edge="1" parent="Es2DBHv7DobXxbvyksLg-91" source="Es2DBHv7DobXxbvyksLg-92" target="Es2DBHv7DobXxbvyksLg-92">
          <mxGeometry width="50" height="50" relative="1" as="geometry">
            <mxPoint x="538" y="10" as="sourcePoint" />
            <mxPoint x="588" y="-40" as="targetPoint" />
          </mxGeometry>
        </mxCell>
      </root>
    </mxGraphModel>
  </diagram>
</mxfile>
